<svg width="1378" height="1548" viewBox="0 0 1378 1548" fill="none" xmlns="http://www.w3.org/2000/svg" xmlns:xlink="http://www.w3.org/1999/xlink">
<rect  x="0.295" y="495.043" width="1376.259" height="913.984" rx="52.831" fill="#1E5AF9"/>
<g filter="url(#filter713_749)">
<g filter="url(#filter713_750)">
<rect  x="317.626" y="-0.622" width="746.191" height="1546.428" rx="126.399" fill="#181A22" stroke="#000000" stroke-opacity="0.9" stroke-width="0.872" stroke-miterlimit="3.999327"/>
</g>
<path d="M359.461,83.116C349.009,103.628 349.009,130.479 349.009,184.182L349.009,1362.746C349.009,1416.448 349.009,1443.3 359.461,1463.812C368.654,1481.854 383.323,1496.524 401.366,1505.718C421.877,1516.168 448.729,1516.168 502.432,1516.168L880.757,1516.168C934.461,1516.168 961.311,1516.168 981.823,1505.718C999.867,1496.524 1014.535,1481.854 1023.729,1463.812C1034.179,1443.3 1034.179,1416.448 1034.179,1362.746L1034.179,184.182C1034.179,130.479 1034.179,103.628 1023.729,83.116C1014.535,65.073 999.867,50.404 981.823,41.211C961.311,30.76 934.461,30.76 880.757,30.76L502.432,30.76C448.729,30.76 421.877,30.76 401.366,41.211C383.323,50.404 368.654,65.073 359.461,83.116ZM614.011,51.682C596.679,51.682 582.629,65.732 582.629,83.063C582.629,100.395 596.679,114.445 614.011,114.445L769.177,114.445C786.509,114.445 800.559,100.395 800.559,83.063C800.559,65.732 786.509,51.682 769.177,51.682L614.011,51.682Z" clip-rule="evenodd" fill-rule="evenodd" fill="url(#pattern_0_713_751)" stroke="#000000" stroke-opacity="0.15" stroke-width="0.872" stroke-miterlimit="3.999327"/>
</g>
<defs>
<filter id="filter713_749" x="172.339798" y="-145.908493" width="664.54007" height="1064.658783" filterUnits="userSpaceOnUse" color-interpolation-filters="sRGB">
<feFlood flood-opacity="0" result="BackgroundImageFix"/>
<feColorMatrix in="SourceAlpha" type="matrix" values="0 0 0 0 0 0 0 0 0 0 0 0 0 0 0 0 0 0 127 0" result="hardAlpha"/>
<feMorphology radius="0" operator="dilate" in="SourceAlpha" result="0dropshadow"/>
<feOffset dx="-136.569244" dy="-27.60442"/>
<feGaussianBlur stdDeviation="72.643211"/>
<feComposite in2="hardAlpha" operator="out"/>
<feColorMatrix type="matrix" values="0 0 0 0 0 0 0 0 0 0 0 0 0 0 0 0 0 0 0.25 0"/>
<feBlend mode="normal" in2="BackgroundImageFix" result="0dropshadow"/>
<feBlend mode="normal" in="SourceGraphic" in2="0dropshadow" result="shape"/>
</filter>
<filter id="filter713_750" x="247.888733" y="-70.359558" width="513.4422" height="930.995285" filterUnits="userSpaceOnUse" color-interpolation-filters="sRGB">
<feFlood flood-opacity="0" result="BackgroundImageFix"/>
<feColorMatrix in="SourceAlpha" type="matrix" values="0 0 0 0 0 0 0 0 0 0 0 0 0 0 0 0 0 0 127 0" result="hardAlpha"/>
<feMorphology radius="0" operator="dilate" in="SourceAlpha" result="0dropshadow"/>
<feOffset dx="0" dy="2.99426"/>
<feGaussianBlur stdDeviation="1.197704"/>
<feComposite in2="hardAlpha" operator="out"/>
<feColorMatrix type="matrix" values="0 0 0 0 0 0 0 0 0 0 0 0 0 0 0 0 0 0 0.02 0"/>
<feBlend mode="normal" in2="BackgroundImageFix" result="0dropshadow"/>
<feColorMatrix in="SourceAlpha" type="matrix" values="0 0 0 0 0 0 0 0 0 0 0 0 0 0 0 0 0 0 127 0" result="hardAlpha"/>
<feMorphology radius="0" operator="dilate" in="SourceAlpha" result="1dropshadow"/>
<feOffset dx="0" dy="7.572708"/>
<feGaussianBlur stdDeviation="3.029083"/>
<feComposite in2="hardAlpha" operator="out"/>
<feColorMatrix type="matrix" values="0 0 0 0 0 0 0 0 0 0 0 0 0 0 0 0 0 0 0.03 0"/>
<feBlend mode="normal" in2="0dropshadow" result="1dropshadow"/>
<feColorMatrix in="SourceAlpha" type="matrix" values="0 0 0 0 0 0 0 0 0 0 0 0 0 0 0 0 0 0 127 0" result="hardAlpha"/>
<feMorphology radius="0" operator="dilate" in="SourceAlpha" result="2dropshadow"/>
<feOffset dx="0" dy="15.447612"/>
<feGaussianBlur stdDeviation="6.179045"/>
<feComposite in2="hardAlpha" operator="out"/>
<feColorMatrix type="matrix" values="0 0 0 0 0 0 0 0 0 0 0 0 0 0 0 0 0 0 0.03 0"/>
<feBlend mode="normal" in2="1dropshadow" result="2dropshadow"/>
<feColorMatrix in="SourceAlpha" type="matrix" values="0 0 0 0 0 0 0 0 0 0 0 0 0 0 0 0 0 0 127 0" result="hardAlpha"/>
<feMorphology radius="0" operator="dilate" in="SourceAlpha" result="3dropshadow"/>
<feOffset dx="0" dy="31.819162"/>
<feGaussianBlur stdDeviation="12.727664"/>
<feComposite in2="hardAlpha" operator="out"/>
<feColorMatrix type="matrix" values="0 0 0 0 0 0 0 0 0 0 0 0 0 0 0 0 0 0 0.04 0"/>
<feBlend mode="normal" in2="2dropshadow" result="3dropshadow"/>
<feColorMatrix in="SourceAlpha" type="matrix" values="0 0 0 0 0 0 0 0 0 0 0 0 0 0 0 0 0 0 127 0" result="hardAlpha"/>
<feMorphology radius="0" operator="dilate" in="SourceAlpha" result="4dropshadow"/>
<feOffset dx="0" dy="87.17186"/>
<feGaussianBlur stdDeviation="34.868744"/>
<feComposite in2="hardAlpha" operator="out"/>
<feColorMatrix type="matrix" values="0 0 0 0 0 0 0 0 0 0 0 0 0 0 0 0 0 0 0.06 0"/>
<feBlend mode="normal" in2="3dropshadow" result="4dropshadow"/>
<feBlend mode="normal" in="SourceGraphic" in2="4dropshadow" result="shape"/>
</filter>
</defs>
</svg>
