<svg width="440" height="440" viewBox="0 0 440 440" fill="none" xmlns="http://www.w3.org/2000/svg" xmlns:xlink="http://www.w3.org/1999/xlink">
<path d="M435.858,220C438.146,220 440.004,221.856 439.962,224.144C438.972,276.68 419.206,327.182 384.164,366.46C349.122,405.736 301.192,431.114 249.11,438.066C246.842,438.368 244.786,436.732 244.526,434.46L244.526,434.46C244.266,432.186 245.9,430.138 248.168,429.832C298.23,423.114 344.294,398.704 377.982,360.944C411.668,323.184 430.686,274.644 431.674,224.144C431.72,221.856 433.57,220 435.858,220L435.858,220Z" stroke="#5956E9" stroke-width="4" stroke-miterlimit="3.999327"/>
<path d="M435.858,220C438.146,220 440.004,221.856 439.962,224.144C438.972,276.68 419.206,327.182 384.164,366.46C349.122,405.736 301.192,431.114 249.11,438.066C246.842,438.368 244.786,436.732 244.526,434.46L244.526,434.46C244.266,432.186 245.9,430.138 248.168,429.832C298.23,423.114 344.294,398.704 377.982,360.944C411.668,323.184 430.686,274.644 431.674,224.144C431.72,221.856 433.57,220 435.858,220L435.858,220Z" transform="rotate(-180 220 220)" stroke="#5956E9" stroke-width="4" stroke-miterlimit="3.999327"/>
<path d="M435.858,220C438.146,220 440.004,221.856 439.962,224.144C438.972,276.68 419.206,327.182 384.164,366.46C349.122,405.736 301.192,431.114 249.11,438.066C246.842,438.368 244.786,436.732 244.526,434.46L244.526,434.46C244.266,432.186 245.9,430.138 248.168,429.832C298.23,423.114 344.294,398.704 377.982,360.944C411.668,323.184 430.686,274.644 431.674,224.144C431.72,221.856 433.57,220 435.858,220L435.858,220Z" transform="rotate(360 220 220)" stroke="#5956E9" stroke-width="4" stroke-miterlimit="3.999327"/>
<path d="M435.858,220C438.146,220 440.004,221.856 439.962,224.144C438.972,276.68 419.206,327.182 384.164,366.46C349.122,405.736 301.192,431.114 249.11,438.066C246.842,438.368 244.786,436.732 244.526,434.46L244.526,434.46C244.266,432.186 245.9,430.138 248.168,429.832C298.23,423.114 344.294,398.704 377.982,360.944C411.668,323.184 430.686,274.644 431.674,224.144C431.72,221.856 433.57,220 435.858,220L435.858,220Z" transform="rotate(180 220 220)" stroke="#5956E9" stroke-width="4" stroke-miterlimit="3.999327"/>
</svg>
