<svg width="82" height="100" viewBox="0 0 82 100" fill="none" xmlns="http://www.w3.org/2000/svg" xmlns:xlink="http://www.w3.org/1999/xlink">
<path d="M20.75,44.551C25.329,54.657 35.133,59.056 39.999,59.056C43.199,59.056 48.533,57.153 53.114,52.977C51.439,53.094 49.649,53.154 47.736,53.154C47.287,53.154 46.817,53.149 46.313,53.142C45.349,53.884 44.155,54.303 42.915,54.303L38.839,54.303C35.768,54.303 33.269,51.804 33.269,48.733C33.269,45.661 35.768,43.163 38.839,43.163L42.915,43.163C44.387,43.163 45.765,43.737 46.786,44.726C47.125,44.73 47.46,44.732 47.788,44.732C53.049,44.732 56.517,44.249 58.785,43.667C58.491,42.951 58.33,42.168 58.33,41.35L58.33,27.228C58.33,25.759 58.876,24.35 59.818,23.262C59.315,19.346 58.402,16.356 57.039,14.15C54.231,9.604 48.816,7.487 39.999,7.487C32.685,7.487 27.634,9.006 24.559,12.129C22.174,14.55 20.793,18.005 20.147,23.223C21.111,24.315 21.669,25.737 21.669,27.228L21.669,41.35C21.669,42.525 21.331,43.622 20.75,44.551Z" fill="#000000"/>
<path d="M10.729,44.684L15.618,44.684C17.459,44.684 18.952,43.192 18.952,41.35L18.952,27.228C18.952,25.997 18.284,24.925 17.293,24.348C18.384,12.784 22.847,4.77 40,4.77C49.85,4.77 55.999,7.297 59.351,12.722C61.301,15.878 62.24,19.956 62.678,24.365C61.702,24.947 61.048,26.009 61.048,27.227L61.048,41.35C61.048,42.938 62.158,44.263 63.644,44.599C61.489,46.009 57.027,47.449 47.788,47.449C47.04,47.449 46.26,47.439 45.447,47.42C44.972,46.505 44.018,45.88 42.916,45.88L38.84,45.88C37.265,45.88 35.987,47.157 35.987,48.733C35.987,50.308 37.265,51.586 38.84,51.586L42.916,51.586C43.868,51.586 44.709,51.117 45.227,50.401C46.085,50.423 46.925,50.436 47.737,50.436C58.151,50.436 64.771,48.658 67.452,45.132C67.566,44.982 67.671,44.832 67.765,44.684L69.271,44.684C71.112,44.684 72.605,43.192 72.605,41.35L72.605,27.228C72.605,25.387 71.113,23.894 69.271,23.894L67.432,23.894C66.915,18.566 65.768,14.031 63.409,10.214C59.163,3.341 51.505,0 40,0C28.493,0 20.836,3.341 16.59,10.214C14.231,14.031 13.085,18.566 12.567,23.894L10.729,23.894C8.887,23.894 7.395,25.387 7.395,27.228L7.395,41.351C7.395,43.192 8.888,44.684 10.729,44.684Z" fill="#000000"/>
<path d="M80.307,86.213C79.198,79.32 76.916,70.442 72.339,67.288C69.219,65.135 58.323,59.314 53.671,56.828L53.573,56.776C53.04,56.492 52.391,56.549 51.916,56.921C49.475,58.837 46.803,60.128 43.974,60.757C43.474,60.868 43.064,61.224 42.882,61.703L40,69.3L37.117,61.703C36.935,61.224 36.525,60.868 36.025,60.757C33.196,60.128 30.523,58.837 28.082,56.921C27.608,56.549 26.958,56.492 26.426,56.776C21.825,59.234 10.789,65.178 7.673,67.278C2.402,70.829 0.1,83.674 -0.308,86.213C-0.348,86.465 -0.325,86.723 -0.24,86.963C-0.051,87.495 4.783,100 39.999,100C75.215,100 80.05,87.495 80.239,86.963C80.324,86.722 80.348,86.465 80.307,86.213ZM63.91,78.298L49.962,78.298L49.962,75.361L63.91,75.361L63.91,78.298Z" fill="#000000"/>
</svg>
