<svg width="72" height="80" viewBox="0 0 72 80" fill="none" xmlns="http://www.w3.org/2000/svg" xmlns:xlink="http://www.w3.org/1999/xlink">
<path d="M67.37,53.871L71.332,53.875L71.332,53.871L67.37,53.871ZM67.37,25.694L71.332,25.694L71.332,25.69L67.37,25.694ZM63.848,19.6L65.829,16.169L65.814,16.16L63.848,19.6ZM39.193,5.512L37.212,8.944L37.227,8.952L39.193,5.512ZM32.149,5.512L34.115,8.952L34.13,8.944L32.149,5.512ZM7.494,19.6L5.528,16.16L5.513,16.169L7.494,19.6ZM3.972,25.694L0.01,25.69L0.01,25.694L3.972,25.694ZM3.972,53.871L0.01,53.871L0.01,53.875L3.972,53.871ZM7.494,59.964L5.513,63.395L5.528,63.404L7.494,59.964ZM32.149,74.052L34.13,70.621L34.115,70.612L32.149,74.052ZM39.193,74.052L37.227,70.612L37.212,70.621L39.193,74.052ZM63.848,59.964L65.814,63.404L65.829,63.395L63.848,59.964ZM6.907,18.601C5.013,17.505 2.589,18.152 1.493,20.047C0.398,21.941 1.045,24.365 2.939,25.461L6.907,18.601ZM35.671,39.817L33.687,43.247C34.914,43.957 36.428,43.957 37.655,43.247L35.671,39.817ZM68.403,25.461C70.297,24.365 70.945,21.941 69.849,20.047C68.753,18.152 66.329,17.505 64.435,18.601L68.403,25.461ZM31.709,75.285C31.709,77.473 33.483,79.247 35.671,79.247C37.859,79.247 39.633,77.473 39.633,75.285L31.709,75.285ZM39.633,39.782C39.633,37.594 37.859,35.82 35.671,35.82C33.483,35.82 31.709,37.594 31.709,39.782L39.633,39.782ZM71.332,53.871L71.332,25.694L63.408,25.694L63.408,53.871L71.332,53.871ZM71.332,25.69C71.33,23.759 70.821,21.864 69.855,20.193L62.994,24.159C63.264,24.627 63.407,25.157 63.408,25.698L71.332,25.69ZM69.855,20.193C68.889,18.522 67.501,17.134 65.829,16.169L61.867,23.032C62.335,23.302 62.723,23.691 62.994,24.159L69.855,20.193ZM65.814,16.16L41.159,2.072L37.227,8.952L61.882,23.041L65.814,16.16ZM41.174,2.081C39.501,1.115 37.603,0.606 35.671,0.606L35.671,8.531C36.212,8.531 36.743,8.673 37.212,8.944L41.174,2.081ZM35.671,0.606C33.739,0.606 31.841,1.115 30.168,2.081L34.13,8.944C34.599,8.673 35.13,8.531 35.671,8.531L35.671,0.606ZM30.183,2.072L5.528,16.16L9.46,23.041L34.115,8.952L30.183,2.072ZM5.513,16.169C3.842,17.134 2.453,18.522 1.487,20.193L8.348,24.159C8.619,23.691 9.007,23.302 9.475,23.032L5.513,16.169ZM1.487,20.193C0.521,21.864 0.012,23.759 0.01,25.69L7.935,25.698C7.935,25.157 8.078,24.627 8.348,24.159L1.487,20.193ZM0.01,25.694L0.01,53.871L7.935,53.871L7.935,25.694L0.01,25.694ZM0.01,53.875C0.012,55.805 0.521,57.7 1.487,59.371L8.348,55.406C8.078,54.938 7.935,54.407 7.935,53.866L0.01,53.875ZM1.487,59.371C2.453,61.042 3.842,62.43 5.513,63.395L9.475,56.532C9.007,56.262 8.619,55.873 8.348,55.406L1.487,59.371ZM5.528,63.404L30.183,77.492L34.115,70.612L9.46,56.523L5.528,63.404ZM30.168,77.484C31.841,78.45 33.739,78.958 35.671,78.958L35.671,71.033C35.13,71.033 34.599,70.891 34.13,70.621L30.168,77.484ZM35.671,78.958C37.603,78.958 39.501,78.45 41.174,77.484L37.212,70.621C36.743,70.891 36.212,71.033 35.671,71.033L35.671,78.958ZM41.159,77.492L65.814,63.404L61.882,56.523L37.227,70.612L41.159,77.492ZM65.829,63.395C67.501,62.43 68.889,61.042 69.855,59.371L62.994,55.406C62.723,55.873 62.335,56.262 61.867,56.532L65.829,63.395ZM69.855,59.371C70.821,57.7 71.33,55.805 71.332,53.875L63.408,53.866C63.407,54.407 63.264,54.938 62.994,55.406L69.855,59.371ZM2.939,25.461L33.687,43.247L37.655,36.388L6.907,18.601L2.939,25.461ZM37.655,43.247L68.403,25.461L64.435,18.601L33.687,36.388L37.655,43.247ZM39.633,75.285L39.633,39.782L31.709,39.782L31.709,75.285L39.633,75.285Z" fill="#FFFFFF"/>
</svg>
