<svg width="72" height="80" viewBox="0 0 72 80" fill="none" xmlns="http://www.w3.org/2000/svg" xmlns:xlink="http://www.w3.org/1999/xlink">
<path d="M67.419,53.333L71.381,53.337L71.381,53.333L67.419,53.333ZM67.419,25.157L71.381,25.157L71.381,25.152L67.419,25.157ZM63.897,19.063L65.878,15.632L65.863,15.623L63.897,19.063ZM39.242,4.975L37.261,8.407L37.276,8.415L39.242,4.975ZM32.198,4.975L34.164,8.415L34.179,8.406L32.198,4.975ZM7.543,19.063L5.577,15.623L5.562,15.632L7.543,19.063ZM4.021,25.157L0.059,25.152L0.059,25.157L4.021,25.157ZM4.021,53.333L0.059,53.333L0.059,53.337L4.021,53.333ZM7.543,59.427L5.562,62.858L5.577,62.867L7.543,59.427ZM32.198,73.515L34.179,70.083L34.164,70.075L32.198,73.515ZM39.242,73.515L37.276,70.075L37.261,70.083L39.242,73.515ZM63.897,59.427L65.863,62.867L65.878,62.858L63.897,59.427ZM6.956,18.064C5.062,16.968 2.638,17.615 1.542,19.51C0.447,21.404 1.094,23.828 2.988,24.923L6.956,18.064ZM35.72,39.28L33.736,42.71C34.963,43.42 36.477,43.42 37.704,42.71L35.72,39.28ZM68.452,24.923C70.346,23.828 70.994,21.404 69.898,19.51C68.802,17.615 66.378,16.968 64.484,18.064L68.452,24.923ZM31.758,74.748C31.758,76.936 33.532,78.71 35.72,78.71C37.908,78.71 39.682,76.936 39.682,74.748L31.758,74.748ZM39.682,39.245C39.682,37.057 37.908,35.283 35.72,35.283C33.532,35.283 31.758,37.057 31.758,39.245L39.682,39.245ZM71.381,53.333L71.381,25.157L63.457,25.157L63.457,53.333L71.381,53.333ZM71.381,25.152C71.379,23.222 70.87,21.327 69.904,19.656L63.043,23.622C63.313,24.089 63.456,24.62 63.457,25.161L71.381,25.152ZM69.904,19.656C68.938,17.985 67.55,16.597 65.878,15.632L61.916,22.495C62.384,22.765 62.772,23.154 63.043,23.622L69.904,19.656ZM65.863,15.623L41.208,1.535L37.276,8.415L61.931,22.504L65.863,15.623ZM41.223,1.543C39.55,0.577 37.652,0.069 35.72,0.069L35.72,7.994C36.261,7.994 36.792,8.136 37.261,8.406L41.223,1.543ZM35.72,0.069C33.788,0.069 31.89,0.577 30.217,1.543L34.179,8.406C34.648,8.136 35.179,7.994 35.72,7.994L35.72,0.069ZM30.232,1.535L5.577,15.623L9.509,22.504L34.164,8.415L30.232,1.535ZM5.562,15.632C3.891,16.597 2.502,17.985 1.536,19.656L8.397,23.622C8.668,23.154 9.056,22.765 9.525,22.495L5.562,15.632ZM1.536,19.656C0.57,21.327 0.061,23.222 0.059,25.152L7.984,25.161C7.984,24.62 8.127,24.089 8.397,23.622L1.536,19.656ZM0.059,25.157L0.059,53.333L7.984,53.333L7.984,25.157L0.059,25.157ZM0.059,53.337C0.061,55.268 0.57,57.163 1.536,58.834L8.397,54.868C8.127,54.4 7.984,53.87 7.984,53.329L0.059,53.337ZM1.536,58.834C2.502,60.505 3.891,61.893 5.562,62.858L9.525,55.995C9.056,55.725 8.668,55.336 8.397,54.868L1.536,58.834ZM5.577,62.867L30.232,76.955L34.164,70.075L9.509,55.986L5.577,62.867ZM30.217,76.946C31.89,77.912 33.788,78.421 35.72,78.421L35.72,70.496C35.179,70.496 34.648,70.354 34.179,70.083L30.217,76.946ZM35.72,78.421C37.652,78.421 39.55,77.912 41.223,76.946L37.261,70.083C36.792,70.354 36.261,70.496 35.72,70.496L35.72,78.421ZM41.208,76.955L65.863,62.867L61.931,55.986L37.276,70.075L41.208,76.955ZM65.878,62.858C67.55,61.893 68.938,60.505 69.904,58.834L63.043,54.868C62.772,55.336 62.384,55.725 61.916,55.995L65.878,62.858ZM69.904,58.834C70.87,57.163 71.379,55.268 71.381,53.337L63.457,53.329C63.456,53.87 63.313,54.4 63.043,54.868L69.904,58.834ZM2.988,24.923L33.736,42.71L37.704,35.85L6.956,18.064L2.988,24.923ZM37.704,42.71L68.452,24.923L64.484,18.064L33.736,35.85L37.704,42.71ZM39.682,74.748L39.682,39.245L31.758,39.245L31.758,74.748L39.682,74.748Z" fill="#282828"/>
</svg>
