<svg width="72" height="80" viewBox="0 0 72 80" fill="none" xmlns="http://www.w3.org/2000/svg" xmlns:xlink="http://www.w3.org/1999/xlink">
<path d="M67.419,53.229L71.381,53.233L71.381,53.229L67.419,53.229ZM67.419,25.052L71.381,25.052L71.381,25.048L67.419,25.052ZM63.897,18.959L65.878,15.527L65.863,15.519L63.897,18.959ZM39.242,4.87L37.261,8.302L37.276,8.311L39.242,4.87ZM32.198,4.87L34.164,8.311L34.179,8.302L32.198,4.87ZM7.543,18.959L5.577,15.519L5.562,15.527L7.543,18.959ZM4.021,25.052L0.059,25.048L0.059,25.052L4.021,25.052ZM4.021,53.229L0.059,53.229L0.059,53.233L4.021,53.229ZM7.543,59.322L5.562,62.754L5.577,62.762L7.543,59.322ZM32.198,73.411L34.179,69.979L34.164,69.97L32.198,73.411ZM39.242,73.411L37.276,69.97L37.261,69.979L39.242,73.411ZM63.897,59.322L65.863,62.762L65.878,62.754L63.897,59.322ZM6.956,17.959C5.062,16.864 2.638,17.511 1.542,19.405C0.447,21.299 1.094,23.723 2.988,24.819L6.956,17.959ZM35.72,39.176L33.736,42.606C34.963,43.316 36.477,43.316 37.704,42.606L35.72,39.176ZM68.452,24.819C70.346,23.723 70.994,21.299 69.898,19.405C68.802,17.511 66.378,16.864 64.484,17.959L68.452,24.819ZM31.758,74.643C31.758,76.832 33.532,78.606 35.72,78.606C37.908,78.606 39.682,76.832 39.682,74.643L31.758,74.643ZM39.682,39.141C39.682,36.952 37.908,35.178 35.72,35.178C33.532,35.178 31.758,36.952 31.758,39.141L39.682,39.141ZM71.381,53.229L71.381,25.052L63.457,25.052L63.457,53.229L71.381,53.229ZM71.381,25.048C71.379,23.118 70.87,21.222 69.904,19.551L63.043,23.517C63.313,23.985 63.456,24.516 63.457,25.056L71.381,25.048ZM69.904,19.551C68.938,17.88 67.55,16.492 65.878,15.527L61.916,22.39C62.384,22.661 62.772,23.049 63.043,23.517L69.904,19.551ZM65.863,15.519L41.208,1.43L37.276,8.311L61.931,22.399L65.863,15.519ZM41.223,1.439C39.55,0.473 37.652,-0.036 35.72,-0.036L35.72,7.889C36.261,7.889 36.792,8.032 37.261,8.302L41.223,1.439ZM35.72,-0.036C33.788,-0.036 31.89,0.473 30.217,1.439L34.179,8.302C34.648,8.032 35.179,7.889 35.72,7.889L35.72,-0.036ZM30.232,1.43L5.577,15.519L9.509,22.399L34.164,8.311L30.232,1.43ZM5.562,15.527C3.891,16.492 2.502,17.88 1.536,19.551L8.397,23.517C8.668,23.049 9.056,22.661 9.525,22.39L5.562,15.527ZM1.536,19.551C0.57,21.222 0.061,23.118 0.059,25.048L7.984,25.056C7.984,24.516 8.127,23.985 8.397,23.517L1.536,19.551ZM0.059,25.052L0.059,53.229L7.984,53.229L7.984,25.052L0.059,25.052ZM0.059,53.233C0.061,55.163 0.57,57.059 1.536,58.73L8.397,54.764C8.127,54.296 7.984,53.765 7.984,53.225L0.059,53.233ZM1.536,58.73C2.502,60.401 3.891,61.789 5.562,62.754L9.525,55.891C9.056,55.62 8.668,55.232 8.397,54.764L1.536,58.73ZM5.577,62.762L30.232,76.851L34.164,69.97L9.509,55.882L5.577,62.762ZM30.217,76.842C31.89,77.808 33.788,78.317 35.72,78.317L35.72,70.392C35.179,70.392 34.648,70.25 34.179,69.979L30.217,76.842ZM35.72,78.317C37.652,78.317 39.55,77.808 41.223,76.842L37.261,69.979C36.792,70.25 36.261,70.392 35.72,70.392L35.72,78.317ZM41.208,76.851L65.863,62.762L61.931,55.882L37.276,69.97L41.208,76.851ZM65.878,62.754C67.55,61.789 68.938,60.401 69.904,58.73L63.043,54.764C62.772,55.232 62.384,55.62 61.916,55.891L65.878,62.754ZM69.904,58.73C70.87,57.059 71.379,55.163 71.381,53.233L63.457,53.225C63.456,53.765 63.313,54.296 63.043,54.764L69.904,58.73ZM2.988,24.819L33.736,42.606L37.704,35.746L6.956,17.959L2.988,24.819ZM37.704,42.606L68.452,24.819L64.484,17.959L33.736,35.746L37.704,42.606ZM39.682,74.643L39.682,39.141L31.758,39.141L31.758,74.643L39.682,74.643Z" fill="#282828"/>
</svg>
