<svg width="28" height="18" viewBox="0 0 28 18" fill="none" xmlns="http://www.w3.org/2000/svg" xmlns:xlink="http://www.w3.org/1999/xlink">
<path d="M3.235,1.5C2.456,0.721 1.192,0.721 0.413,1.5C-0.366,2.279 -0.366,3.542 0.413,4.321L3.235,1.5ZM13.793,14.879L12.382,16.29C13.161,17.069 14.424,17.069 15.203,16.29L13.793,14.879ZM27.172,4.321C27.951,3.542 27.951,2.279 27.172,1.5C26.393,0.721 25.13,0.721 24.351,1.5L27.172,4.321ZM0.413,4.321L12.382,16.29L15.203,13.469L3.235,1.5L0.413,4.321ZM15.203,16.29L27.172,4.321L24.351,1.5L12.382,13.469L15.203,16.29Z" fill="#2F234F"/>
</svg>
