<svg width="72" height="80" viewBox="0 0 72 80" fill="none" xmlns="http://www.w3.org/2000/svg" xmlns:xlink="http://www.w3.org/1999/xlink">
<path d="M67.393,53.229L71.355,53.233L71.355,53.229L67.393,53.229ZM67.393,25.052L71.355,25.052L71.355,25.048L67.393,25.052ZM63.871,18.959L65.852,15.527L65.837,15.519L63.871,18.959ZM39.216,4.87L37.235,8.302L37.25,8.311L39.216,4.87ZM32.172,4.87L34.138,8.311L34.153,8.302L32.172,4.87ZM7.517,18.959L5.551,15.519L5.536,15.527L7.517,18.959ZM3.995,25.052L0.033,25.048L0.033,25.052L3.995,25.052ZM3.995,53.229L0.033,53.229L0.033,53.233L3.995,53.229ZM7.517,59.322L5.536,62.754L5.551,62.762L7.517,59.322ZM32.172,73.411L34.153,69.979L34.138,69.97L32.172,73.411ZM39.216,73.411L37.25,69.97L37.235,69.979L39.216,73.411ZM63.871,59.322L65.837,62.762L65.852,62.754L63.871,59.322ZM6.93,17.959C5.036,16.864 2.612,17.511 1.516,19.405C0.42,21.299 1.068,23.723 2.962,24.819L6.93,17.959ZM35.694,39.176L33.71,42.606C34.937,43.316 36.451,43.316 37.678,42.606L35.694,39.176ZM68.426,24.819C70.32,23.723 70.968,21.299 69.872,19.405C68.776,17.511 66.352,16.864 64.458,17.959L68.426,24.819ZM31.732,74.643C31.732,76.832 33.506,78.606 35.694,78.606C37.882,78.606 39.656,76.832 39.656,74.643L31.732,74.643ZM39.656,39.141C39.656,36.952 37.882,35.178 35.694,35.178C33.506,35.178 31.732,36.952 31.732,39.141L39.656,39.141ZM71.355,53.229L71.355,25.052L63.431,25.052L63.431,53.229L71.355,53.229ZM71.355,25.048C71.353,23.118 70.844,21.222 69.878,19.551L63.017,23.517C63.287,23.985 63.43,24.516 63.431,25.056L71.355,25.048ZM69.878,19.551C68.912,17.88 67.524,16.492 65.852,15.527L61.89,22.39C62.358,22.661 62.746,23.049 63.017,23.517L69.878,19.551ZM65.837,15.519L41.182,1.43L37.25,8.311L61.905,22.399L65.837,15.519ZM41.197,1.439C39.524,0.473 37.626,-0.036 35.694,-0.036L35.694,7.889C36.235,7.889 36.766,8.032 37.235,8.302L41.197,1.439ZM35.694,-0.036C33.762,-0.036 31.864,0.473 30.191,1.439L34.153,8.302C34.622,8.032 35.153,7.889 35.694,7.889L35.694,-0.036ZM30.206,1.43L5.551,15.519L9.483,22.399L34.138,8.311L30.206,1.43ZM5.536,15.527C3.864,16.492 2.476,17.88 1.51,19.551L8.371,23.517C8.642,23.049 9.03,22.661 9.498,22.39L5.536,15.527ZM1.51,19.551C0.544,21.222 0.035,23.118 0.033,25.048L7.957,25.056C7.958,24.516 8.101,23.985 8.371,23.517L1.51,19.551ZM0.033,25.052L0.033,53.229L7.957,53.229L7.957,25.052L0.033,25.052ZM0.033,53.233C0.035,55.163 0.544,57.059 1.51,58.73L8.371,54.764C8.101,54.296 7.958,53.765 7.957,53.225L0.033,53.233ZM1.51,58.73C2.476,60.401 3.864,61.789 5.536,62.754L9.498,55.891C9.03,55.62 8.642,55.232 8.371,54.764L1.51,58.73ZM5.551,62.762L30.206,76.851L34.138,69.97L9.483,55.882L5.551,62.762ZM30.191,76.842C31.864,77.808 33.762,78.317 35.694,78.317L35.694,70.392C35.153,70.392 34.622,70.25 34.153,69.979L30.191,76.842ZM35.694,78.317C37.626,78.317 39.524,77.808 41.197,76.842L37.235,69.979C36.766,70.25 36.235,70.392 35.694,70.392L35.694,78.317ZM41.182,76.851L65.837,62.762L61.905,55.882L37.25,69.97L41.182,76.851ZM65.852,62.754C67.524,61.789 68.912,60.401 69.878,58.73L63.017,54.764C62.746,55.232 62.358,55.62 61.89,55.891L65.852,62.754ZM69.878,58.73C70.844,57.059 71.353,55.163 71.355,53.233L63.431,53.225C63.43,53.765 63.287,54.296 63.017,54.764L69.878,58.73ZM2.962,24.819L33.71,42.606L37.678,35.746L6.93,17.959L2.962,24.819ZM37.678,42.606L68.426,24.819L64.458,17.959L33.71,35.746L37.678,42.606ZM39.656,74.643L39.656,39.141L31.732,39.141L31.732,74.643L39.656,74.643Z" fill="#282828"/>
</svg>
