<svg width="72" height="74" viewBox="0 0 72 74" fill="none" xmlns="http://www.w3.org/2000/svg" xmlns:xlink="http://www.w3.org/1999/xlink">
<path d="M41.033,6.092C41.033,3.174 38.667,0.809 35.75,0.809C32.832,0.809 30.466,3.174 30.466,6.092L41.033,6.092ZM30.466,67.728C30.466,70.646 32.832,73.012 35.75,73.012C38.667,73.012 41.033,70.646 41.033,67.728L30.466,67.728ZM4.931,31.627C2.013,31.627 -0.352,33.992 -0.352,36.91C-0.352,39.828 2.013,42.193 4.931,42.193L4.931,31.627ZM66.568,42.193C69.486,42.193 71.851,39.828 71.851,36.91C71.851,33.992 69.486,31.627 66.568,31.627L66.568,42.193ZM30.466,6.092L30.466,67.728L41.033,67.728L41.033,6.092L30.466,6.092ZM4.931,42.193L66.568,42.193L66.568,31.627L4.931,31.627L4.931,42.193Z" fill="#282828"/>
</svg>
