<svg width="72" height="80" viewBox="0 0 72 80" fill="none" xmlns="http://www.w3.org/2000/svg" xmlns:xlink="http://www.w3.org/1999/xlink">
<path d="M67.393,53.333L71.355,53.337L71.355,53.333L67.393,53.333ZM67.393,25.157L71.355,25.157L71.355,25.152L67.393,25.157ZM63.871,19.063L65.852,15.632L65.837,15.623L63.871,19.063ZM39.216,4.975L37.235,8.407L37.25,8.415L39.216,4.975ZM32.172,4.975L34.138,8.415L34.153,8.406L32.172,4.975ZM7.517,19.063L5.551,15.623L5.536,15.632L7.517,19.063ZM3.995,25.157L0.033,25.152L0.033,25.157L3.995,25.157ZM3.995,53.333L0.033,53.333L0.033,53.337L3.995,53.333ZM7.517,59.427L5.536,62.858L5.551,62.867L7.517,59.427ZM32.172,73.515L34.153,70.083L34.138,70.075L32.172,73.515ZM39.216,73.515L37.25,70.075L37.235,70.083L39.216,73.515ZM63.871,59.427L65.837,62.867L65.852,62.858L63.871,59.427ZM6.93,18.064C5.036,16.968 2.612,17.615 1.516,19.51C0.42,21.404 1.068,23.828 2.962,24.923L6.93,18.064ZM35.694,39.28L33.71,42.71C34.937,43.42 36.451,43.42 37.678,42.71L35.694,39.28ZM68.426,24.923C70.32,23.828 70.968,21.404 69.872,19.51C68.776,17.615 66.352,16.968 64.458,18.064L68.426,24.923ZM31.732,74.748C31.732,76.936 33.506,78.71 35.694,78.71C37.882,78.71 39.656,76.936 39.656,74.748L31.732,74.748ZM39.656,39.245C39.656,37.057 37.882,35.283 35.694,35.283C33.506,35.283 31.732,37.057 31.732,39.245L39.656,39.245ZM71.355,53.333L71.355,25.157L63.431,25.157L63.431,53.333L71.355,53.333ZM71.355,25.152C71.353,23.222 70.844,21.327 69.878,19.656L63.017,23.622C63.287,24.089 63.43,24.62 63.431,25.161L71.355,25.152ZM69.878,19.656C68.912,17.985 67.524,16.597 65.852,15.632L61.89,22.495C62.358,22.765 62.746,23.154 63.017,23.622L69.878,19.656ZM65.837,15.623L41.182,1.535L37.25,8.415L61.905,22.504L65.837,15.623ZM41.197,1.543C39.524,0.577 37.626,0.069 35.694,0.069L35.694,7.994C36.235,7.994 36.766,8.136 37.235,8.406L41.197,1.543ZM35.694,0.069C33.762,0.069 31.864,0.577 30.191,1.543L34.153,8.406C34.622,8.136 35.153,7.994 35.694,7.994L35.694,0.069ZM30.206,1.535L5.551,15.623L9.483,22.504L34.138,8.415L30.206,1.535ZM5.536,15.632C3.864,16.597 2.476,17.985 1.51,19.656L8.371,23.622C8.642,23.154 9.03,22.765 9.498,22.495L5.536,15.632ZM1.51,19.656C0.544,21.327 0.035,23.222 0.033,25.152L7.957,25.161C7.958,24.62 8.101,24.089 8.371,23.622L1.51,19.656ZM0.033,25.157L0.033,53.333L7.957,53.333L7.957,25.157L0.033,25.157ZM0.033,53.337C0.035,55.268 0.544,57.163 1.51,58.834L8.371,54.868C8.101,54.4 7.958,53.87 7.957,53.329L0.033,53.337ZM1.51,58.834C2.476,60.505 3.864,61.893 5.536,62.858L9.498,55.995C9.03,55.725 8.642,55.336 8.371,54.868L1.51,58.834ZM5.551,62.867L30.206,76.955L34.138,70.075L9.483,55.986L5.551,62.867ZM30.191,76.946C31.864,77.912 33.762,78.421 35.694,78.421L35.694,70.496C35.153,70.496 34.622,70.354 34.153,70.083L30.191,76.946ZM35.694,78.421C37.626,78.421 39.524,77.912 41.197,76.946L37.235,70.083C36.766,70.354 36.235,70.496 35.694,70.496L35.694,78.421ZM41.182,76.955L65.837,62.867L61.905,55.986L37.25,70.075L41.182,76.955ZM65.852,62.858C67.524,61.893 68.912,60.505 69.878,58.834L63.017,54.868C62.746,55.336 62.358,55.725 61.89,55.995L65.852,62.858ZM69.878,58.834C70.844,57.163 71.353,55.268 71.355,53.337L63.431,53.329C63.43,53.87 63.287,54.4 63.017,54.868L69.878,58.834ZM2.962,24.923L33.71,42.71L37.678,35.85L6.93,18.064L2.962,24.923ZM37.678,42.71L68.426,24.923L64.458,18.064L33.71,35.85L37.678,42.71ZM39.656,74.748L39.656,39.245L31.732,39.245L31.732,74.748L39.656,74.748Z" fill="#282828"/>
</svg>
