<svg width="100" height="100" viewBox="0 0 100 100" fill="none" xmlns="http://www.w3.org/2000/svg" xmlns:xlink="http://www.w3.org/1999/xlink">
<path d="M97.07,0L85.156,0C83.537,0 82.227,1.31 82.227,2.93L82.227,5.859L58.249,5.859C57.036,2.457 53.814,0 50,0C46.186,0 42.964,2.457 41.751,5.859L17.773,5.859L17.773,2.93C17.773,1.31 16.463,0 14.844,0L2.93,0C1.31,0 0,1.31 0,2.93L0,14.648C0,16.268 1.31,17.578 2.93,17.578L14.844,17.578C16.463,17.578 17.773,16.268 17.773,14.648L17.773,11.68L29.805,11.68C19.638,18.031 12.934,29.187 12.133,41.683C8.617,42.833 6.055,46.105 6.055,50C6.055,54.846 9.997,58.789 14.844,58.789C19.69,58.789 23.633,54.846 23.633,50C23.633,46.262 21.277,43.083 17.98,41.815C18.98,27.884 28.7,16.143 42.221,12.793C43.684,15.62 46.603,17.578 50,17.578C53.397,17.578 56.316,15.62 57.779,12.793C71.3,16.143 81.02,27.884 82.02,41.815C78.723,43.083 76.367,46.262 76.367,50C76.367,54.846 80.31,58.789 85.156,58.789C90.003,58.789 93.945,54.846 93.945,50C93.945,46.105 91.383,42.833 87.867,41.683C87.066,29.187 80.362,18.07 70.195,11.719L82.227,11.719L82.227,14.648C82.227,16.268 83.537,17.578 85.156,17.578L97.07,17.578C98.69,17.578 100,16.268 100,14.648L100,2.93C100,1.31 98.69,0 97.07,0Z" fill="#FFFFFF"/>
<path d="M69.932,96.366C68.399,91.677 63.985,88.086 58.789,88.086L41.211,88.086C36.016,88.086 31.601,91.677 30.069,96.366C29.478,98.174 31.016,100 32.918,100L67.082,100C68.984,100 70.523,98.174 69.932,96.366Z" fill="#FFFFFF"/>
<path d="M75.875,60.094L52.93,25.676L52.93,53.469C56.332,54.683 58.789,57.904 58.789,61.719C58.789,66.565 54.846,70.508 50,70.508C45.154,70.508 41.211,66.565 41.211,61.719C41.211,57.904 43.668,54.683 47.07,53.469L47.07,25.676L24.125,60.094C23.35,61.255 23.504,62.803 24.491,63.79C29.87,69.169 33.307,76.097 34.634,83.53C36.669,82.704 38.883,82.227 41.211,82.227L58.789,82.227C61.117,82.227 63.331,82.704 65.366,83.529C66.693,76.097 70.13,69.169 75.509,63.79C76.496,62.803 76.65,61.255 75.875,60.094Z" fill="#FFFFFF"/>
<path d="M50,58.789C48.384,58.789 47.07,60.102 47.07,61.719C47.07,63.335 48.384,64.648 50,64.648C51.616,64.648 52.93,63.335 52.93,61.719C52.93,60.102 51.616,58.789 50,58.789Z" fill="#FFFFFF"/>
</svg>
