<svg width="72" height="80" viewBox="0 0 72 80" fill="none" xmlns="http://www.w3.org/2000/svg" xmlns:xlink="http://www.w3.org/1999/xlink">
<path d="M67.37,53.975L71.332,53.979L71.332,53.975L67.37,53.975ZM67.37,25.798L71.332,25.798L71.332,25.794L67.37,25.798ZM63.848,19.705L65.829,16.273L65.814,16.265L63.848,19.705ZM39.193,5.617L37.212,9.048L37.227,9.057L39.193,5.617ZM32.149,5.617L34.115,9.057L34.13,9.048L32.149,5.617ZM7.494,19.705L5.528,16.265L5.513,16.273L7.494,19.705ZM3.972,25.798L0.01,25.794L0.01,25.798L3.972,25.798ZM3.972,53.975L0.01,53.975L0.01,53.979L3.972,53.975ZM7.494,60.068L5.513,63.5L5.528,63.508L7.494,60.068ZM32.149,74.157L34.13,70.725L34.115,70.716L32.149,74.157ZM39.193,74.157L37.227,70.716L37.212,70.725L39.193,74.157ZM63.848,60.068L65.814,63.508L65.829,63.5L63.848,60.068ZM6.907,18.705C5.013,17.61 2.589,18.257 1.493,20.151C0.398,22.045 1.045,24.469 2.939,25.565L6.907,18.705ZM35.671,39.922L33.687,43.352C34.914,44.062 36.428,44.062 37.655,43.352L35.671,39.922ZM68.403,25.565C70.297,24.469 70.945,22.045 69.849,20.151C68.753,18.257 66.329,17.61 64.435,18.705L68.403,25.565ZM31.709,75.389C31.709,77.578 33.483,79.352 35.671,79.352C37.859,79.352 39.633,77.578 39.633,75.389L31.709,75.389ZM39.633,39.887C39.633,37.698 37.859,35.924 35.671,35.924C33.483,35.924 31.709,37.698 31.709,39.887L39.633,39.887ZM71.332,53.975L71.332,25.798L63.408,25.798L63.408,53.975L71.332,53.975ZM71.332,25.794C71.33,23.864 70.821,21.968 69.855,20.297L62.994,24.263C63.264,24.731 63.407,25.262 63.408,25.802L71.332,25.794ZM69.855,20.297C68.889,18.626 67.501,17.239 65.829,16.273L61.867,23.136C62.335,23.407 62.723,23.795 62.994,24.263L69.855,20.297ZM65.814,16.265L41.159,2.176L37.227,9.057L61.882,23.145L65.814,16.265ZM41.174,2.185C39.501,1.219 37.603,0.71 35.671,0.71L35.671,8.635C36.212,8.635 36.743,8.778 37.212,9.048L41.174,2.185ZM35.671,0.71C33.739,0.71 31.841,1.219 30.168,2.185L34.13,9.048C34.599,8.778 35.13,8.635 35.671,8.635L35.671,0.71ZM30.183,2.176L5.528,16.265L9.46,23.145L34.115,9.057L30.183,2.176ZM5.513,16.273C3.842,17.239 2.453,18.626 1.487,20.297L8.348,24.263C8.619,23.795 9.007,23.407 9.475,23.136L5.513,16.273ZM1.487,20.297C0.521,21.968 0.012,23.864 0.01,25.794L7.935,25.802C7.935,25.262 8.078,24.731 8.348,24.263L1.487,20.297ZM0.01,25.798L0.01,53.975L7.935,53.975L7.935,25.798L0.01,25.798ZM0.01,53.979C0.012,55.909 0.521,57.805 1.487,59.476L8.348,55.51C8.078,55.042 7.935,54.511 7.935,53.971L0.01,53.979ZM1.487,59.476C2.453,61.147 3.842,62.535 5.513,63.5L9.475,56.637C9.007,56.366 8.619,55.978 8.348,55.51L1.487,59.476ZM5.528,63.508L30.183,77.597L34.115,70.716L9.46,56.628L5.528,63.508ZM30.168,77.588C31.841,78.554 33.739,79.063 35.671,79.063L35.671,71.138C35.13,71.138 34.599,70.996 34.13,70.725L30.168,77.588ZM35.671,79.063C37.603,79.063 39.501,78.554 41.174,77.588L37.212,70.725C36.743,70.996 36.212,71.138 35.671,71.138L35.671,79.063ZM41.159,77.597L65.814,63.508L61.882,56.628L37.227,70.716L41.159,77.597ZM65.829,63.5C67.501,62.535 68.889,61.147 69.855,59.476L62.994,55.51C62.723,55.978 62.335,56.366 61.867,56.637L65.829,63.5ZM69.855,59.476C70.821,57.805 71.33,55.909 71.332,53.979L63.408,53.971C63.407,54.511 63.264,55.042 62.994,55.51L69.855,59.476ZM2.939,25.565L33.687,43.352L37.655,36.492L6.907,18.705L2.939,25.565ZM37.655,43.352L68.403,25.565L64.435,18.705L33.687,36.492L37.655,43.352ZM39.633,75.389L39.633,39.887L31.709,39.887L31.709,75.389L39.633,75.389Z" fill="#FFFFFF"/>
</svg>
