<svg width="72" height="72" viewBox="0 0 72 72" fill="none" xmlns="http://www.w3.org/2000/svg" xmlns:xlink="http://www.w3.org/1999/xlink">
<path d="M41.033,4.612C41.033,1.695 38.667,-0.671 35.75,-0.671C32.832,-0.671 30.466,1.695 30.466,4.612L41.033,4.612ZM30.466,66.249C30.466,69.167 32.832,71.532 35.75,71.532C38.667,71.532 41.033,69.167 41.033,66.249L30.466,66.249ZM4.931,30.148C2.013,30.148 -0.352,32.513 -0.352,35.431C-0.352,38.349 2.013,40.714 4.931,40.714L4.931,30.148ZM66.568,40.714C69.486,40.714 71.851,38.349 71.851,35.431C71.851,32.513 69.486,30.148 66.568,30.148L66.568,40.714ZM30.466,4.612L30.466,66.249L41.033,66.249L41.033,4.612L30.466,4.612ZM4.931,40.714L66.568,40.714L66.568,30.148L4.931,30.148L4.931,40.714Z" fill="#282828"/>
</svg>
