<svg width="44" height="52" viewBox="0 0 44 52" fill="none" xmlns="http://www.w3.org/2000/svg" xmlns:xlink="http://www.w3.org/1999/xlink">
<path d="M21.545,3.601L21.545,0.959L21.545,3.601ZM8.337,16.809L5.696,16.809L8.337,16.809ZM1.733,36.621L0.268,34.423C-0.701,35.068 -1.132,36.272 -0.795,37.386C-0.458,38.5 0.569,39.262 1.733,39.262L1.733,36.621ZM41.357,36.621L41.357,39.262C42.521,39.262 43.548,38.5 43.885,37.386C44.222,36.272 43.791,35.068 42.822,34.423L41.357,36.621ZM27.638,46.751C28.37,45.489 27.941,43.873 26.679,43.141C25.417,42.409 23.8,42.838 23.068,44.1L27.638,46.751ZM20.022,44.1C19.29,42.838 17.673,42.409 16.411,43.141C15.149,43.873 14.72,45.489 15.452,46.751L20.022,44.1ZM37.394,16.809C37.394,12.605 35.725,8.574 32.752,5.602L29.016,9.337C30.998,11.319 32.111,14.007 32.111,16.809L37.394,16.809ZM32.752,5.602C29.78,2.629 25.749,0.959 21.545,0.959L21.545,6.243C24.347,6.243 27.035,7.356 29.016,9.337L32.752,5.602ZM21.545,0.959C17.341,0.959 13.31,2.629 10.338,5.602L14.073,9.337C16.055,7.356 18.743,6.243 21.545,6.243L21.545,0.959ZM10.338,5.602C7.365,8.574 5.696,12.605 5.696,16.809L10.979,16.809C10.979,14.007 12.092,11.319 14.073,9.337L10.338,5.602ZM5.696,16.809C5.696,24.124 4.132,28.633 2.716,31.228C2.005,32.532 1.316,33.38 0.847,33.875C0.612,34.124 0.43,34.285 0.326,34.372C0.274,34.416 0.241,34.441 0.23,34.449C0.225,34.453 0.225,34.452 0.231,34.448C0.234,34.446 0.239,34.442 0.245,34.438C0.248,34.436 0.251,34.434 0.255,34.431C0.257,34.43 0.259,34.429 0.261,34.427C0.262,34.426 0.264,34.425 0.264,34.425C0.266,34.424 0.268,34.423 1.733,36.621C3.198,38.819 3.2,38.817 3.202,38.816C3.203,38.816 3.204,38.815 3.206,38.814C3.208,38.812 3.211,38.81 3.214,38.808C3.219,38.805 3.225,38.801 3.231,38.797C3.244,38.788 3.258,38.778 3.273,38.767C3.304,38.745 3.342,38.718 3.385,38.686C3.471,38.622 3.58,38.538 3.708,38.431C3.965,38.217 4.299,37.914 4.683,37.509C5.452,36.697 6.415,35.481 7.354,33.758C9.241,30.299 10.979,24.903 10.979,16.809L5.696,16.809ZM1.733,39.262L41.357,39.262L41.357,33.979L1.733,33.979L1.733,39.262ZM41.357,36.621C42.822,34.423 42.824,34.424 42.825,34.425C42.826,34.425 42.828,34.426 42.829,34.427C42.831,34.429 42.833,34.43 42.835,34.431C42.839,34.434 42.842,34.436 42.845,34.438C42.851,34.442 42.856,34.446 42.859,34.448C42.865,34.452 42.865,34.453 42.86,34.449C42.849,34.441 42.816,34.416 42.764,34.372C42.66,34.285 42.478,34.124 42.243,33.875C41.774,33.38 41.085,32.532 40.374,31.228C38.958,28.633 37.394,24.124 37.394,16.809L32.111,16.809C32.111,24.903 33.849,30.299 35.736,33.758C36.675,35.481 37.638,36.697 38.407,37.509C38.791,37.914 39.125,38.217 39.382,38.431C39.51,38.538 39.619,38.622 39.705,38.686C39.748,38.718 39.786,38.745 39.817,38.767C39.832,38.778 39.846,38.788 39.859,38.797C39.865,38.801 39.871,38.805 39.876,38.808C39.879,38.81 39.882,38.812 39.884,38.814C39.886,38.815 39.887,38.816 39.888,38.816C39.89,38.817 39.891,38.819 41.357,36.621ZM23.068,44.1C22.913,44.367 22.691,44.589 22.424,44.743L25.061,49.321C26.13,48.705 27.019,47.819 27.638,46.751L23.068,44.1ZM22.424,44.743C22.157,44.897 21.854,44.978 21.545,44.978L21.545,50.261C22.779,50.261 23.991,49.937 25.061,49.321L22.424,44.743ZM21.545,44.978C21.236,44.978 20.933,44.897 20.666,44.743L18.029,49.321C19.098,49.937 20.311,50.261 21.545,50.261L21.545,44.978ZM20.666,44.743C20.399,44.589 20.176,44.367 20.022,44.1L15.452,46.751C16.071,47.819 16.96,48.705 18.029,49.321L20.666,44.743Z" fill="#1F1F1F"/>
</svg>
