<svg width="48" height="48" viewBox="0 0 48 48" fill="none" xmlns="http://www.w3.org/2000/svg" xmlns:xlink="http://www.w3.org/1999/xlink">
<path d="M30,24L26,24L26,20C26,18.894 25.104,18 24,18C22.896,18 22,18.894 22,20L22,26C22,27.106 22.896,28 24,28L30,28C31.104,28 32,27.106 32,26C32,24.894 31.104,24 30,24M24,39.5C16.556,39.5 10.5,33.444 10.5,26C10.5,18.556 16.556,12.5 24,12.5C31.444,12.5 37.5,18.556 37.5,26C37.5,33.444 31.444,39.5 24,39.5M25.976,8.116C25.98,8.074 26,8.042 26,8L26,6L28,6C29.104,6 30,5.106 30,4C30,2.894 29.104,2 28,2L20,2C18.896,2 18,2.894 18,4C18,5.106 18.896,6 20,6L22,6L22,8C22,8.042 22.02,8.074 22.024,8.116C13.026,9.104 6,16.744 6,26C6,35.926 14.076,44 24,44C33.924,44 42,35.926 42,26C42,16.744 34.974,9.104 25.976,8.116Z" clip-rule="evenodd" fill-rule="evenodd" fill="#232233"/>
<rect  x="0" y="0" width="48" height="48" fill="#232233"/>
</svg>
