<svg width="48" height="48" viewBox="0 0 48 48" fill="none" xmlns="http://www.w3.org/2000/svg" xmlns:xlink="http://www.w3.org/1999/xlink">
<path d="M14,21.999C14,20.895 14.896,19.999 16,19.999C17.104,19.999 18,20.895 18,21.999C18,23.103 17.104,23.999 16,23.999C14.896,23.999 14,23.103 14,21.999ZM24,19.999C22.896,19.999 22,20.895 22,21.999C22,23.103 22.896,23.999 24,23.999C25.104,23.999 26,23.103 26,21.999C26,20.895 25.104,19.999 24,19.999ZM32,19.999C30.896,19.999 30,20.895 30,21.999C30,23.103 30.896,23.999 32,23.999C33.104,23.999 34,23.103 34,21.999C34,20.895 33.104,19.999 32,19.999ZM39.797,24.588C38.783,31.096 33.537,36.494 27.039,37.712C23.901,38.304 20.705,37.966 17.805,36.738C16.983,36.39 16.133,36.214 15.299,36.214C14.919,36.214 14.543,36.25 14.173,36.324L8.549,37.448L9.675,31.814C9.911,30.644 9.767,29.392 9.261,28.194C8.033,25.294 7.697,22.1 8.287,18.96C9.505,12.462 14.901,7.216 21.411,6.202L21.411,6.202C26.591,5.396 31.657,7.028 35.313,10.684C38.971,14.342 40.605,19.41 39.797,24.588M38.143,7.856C33.573,3.288 27.253,1.25 20.795,2.248C12.641,3.52 5.881,10.088 4.355,18.222C3.619,22.138 4.043,26.126 5.577,29.752C5.771,30.214 5.831,30.644 5.755,31.03L4.039,39.606C3.907,40.262 4.113,40.94 4.587,41.412C4.965,41.792 5.475,41.998 6.001,41.998C6.131,41.998 6.261,41.986 6.393,41.96L14.959,40.246C15.451,40.152 15.927,40.29 16.245,40.422C19.875,41.956 23.863,42.378 27.775,41.644C35.911,40.118 42.479,33.358 43.751,25.204C44.755,18.75 42.713,12.426 38.143,7.856Z" clip-rule="evenodd" fill-rule="evenodd" fill="#232233"/>
<rect  x="0" y="0" width="48" height="48" fill="#232233"/>
</svg>
