<svg width="72" height="74" viewBox="0 0 72 74" fill="none" xmlns="http://www.w3.org/2000/svg" xmlns:xlink="http://www.w3.org/1999/xlink">
<path d="M41.033,5.646C41.033,2.729 38.667,0.363 35.75,0.363C32.832,0.363 30.466,2.729 30.466,5.646L41.033,5.646ZM30.466,67.283C30.466,70.201 32.832,72.566 35.75,72.566C38.667,72.566 41.033,70.201 41.033,67.283L30.466,67.283ZM4.931,31.182C2.013,31.182 -0.352,33.547 -0.352,36.465C-0.352,39.383 2.013,41.748 4.931,41.748L4.931,31.182ZM66.568,41.748C69.486,41.748 71.851,39.383 71.851,36.465C71.851,33.547 69.486,31.182 66.568,31.182L66.568,41.748ZM30.466,5.646L30.466,67.283L41.033,67.283L41.033,5.646L30.466,5.646ZM4.931,41.748L66.568,41.748L66.568,31.182L4.931,31.182L4.931,41.748Z" fill="#282828"/>
</svg>
