<svg width="58" height="58" viewBox="0 0 58 58" fill="none" xmlns="http://www.w3.org/2000/svg" xmlns:xlink="http://www.w3.org/1999/xlink">
<path d="M42.54,25.705C42.54,34.959 35.038,42.461 25.784,42.461L25.784,47.249C37.682,47.249 47.328,37.603 47.328,25.705L42.54,25.705ZM25.784,42.461C16.529,42.461 9.027,34.959 9.027,25.705L4.24,25.705C4.24,37.603 13.885,47.249 25.784,47.249L25.784,42.461ZM9.027,25.705C9.027,16.451 16.529,8.948 25.784,8.948L25.784,4.161C13.885,4.161 4.24,13.806 4.24,25.705L9.027,25.705ZM25.784,8.948C35.038,8.948 42.54,16.451 42.54,25.705L47.328,25.705C47.328,13.806 37.682,4.161 25.784,4.161L25.784,8.948Z" fill="#2F234F"/>
<path d="M48.029,51.335C48.964,52.27 50.479,52.27 51.414,51.335C52.349,50.4 52.349,48.885 51.414,47.95L48.029,51.335ZM41.001,37.537C40.066,36.602 38.551,36.602 37.616,37.537C36.681,38.472 36.681,39.987 37.616,40.922L41.001,37.537ZM51.414,47.95L41.001,37.537L37.616,40.922L48.029,51.335L51.414,47.95Z" fill="#2F234F"/>
</svg>
