<svg width="28" height="18" viewBox="0 0 28 18" fill="none" xmlns="http://www.w3.org/2000/svg" xmlns:xlink="http://www.w3.org/1999/xlink">
<path d="M3.4,1.5C2.621,0.721 1.358,0.721 0.579,1.5C-0.201,2.279 -0.201,3.542 0.579,4.321L3.4,1.5ZM13.958,14.879L12.547,16.29C13.326,17.069 14.589,17.069 15.369,16.29L13.958,14.879ZM27.337,4.321C28.116,3.542 28.116,2.279 27.337,1.5C26.558,0.721 25.295,0.721 24.516,1.5L27.337,4.321ZM0.579,4.321L12.547,16.29L15.369,13.469L3.4,1.5L0.579,4.321ZM15.369,16.29L27.337,4.321L24.516,1.5L12.547,13.469L15.369,16.29Z" fill="#2F234F"/>
</svg>
