<svg width="82" height="82" viewBox="0 0 82 82" fill="none" xmlns="http://www.w3.org/2000/svg" xmlns:xlink="http://www.w3.org/1999/xlink">
<path d="M81.872,37.463C81.872,34.545 79.507,32.18 76.589,32.18C73.671,32.18 71.306,34.545 71.306,37.463L81.872,37.463ZM76.589,40.704L81.872,40.707L81.872,40.704L76.589,40.704ZM53.553,13.337C56.218,14.525 59.341,13.327 60.529,10.662C61.716,7.997 60.519,4.873 57.853,3.686L53.553,13.337ZM80.327,16.261C82.389,14.196 82.387,10.851 80.323,8.789C78.259,6.727 74.914,6.729 72.852,8.793L80.327,16.261ZM41.368,47.783L37.632,51.519C38.624,52.51 39.968,53.066 41.369,53.066C42.771,53.066 44.115,52.508 45.106,51.517L41.368,47.783ZM34.538,33.481C32.474,31.418 29.129,31.418 27.066,33.481C25.003,35.544 25.003,38.889 27.066,40.952L34.538,33.481ZM71.306,37.463L71.306,40.704L81.872,40.704L81.872,37.463L71.306,37.463ZM71.306,40.7C71.302,47.156 69.212,53.438 65.346,58.609L73.809,64.935C79.039,57.94 81.867,49.441 81.872,40.707L71.306,40.7ZM65.346,58.609C61.481,63.779 56.048,67.562 49.857,69.393L52.853,79.525C61.228,77.049 68.579,71.931 73.809,64.935L65.346,58.609ZM49.857,69.393C43.666,71.223 37.049,71.003 30.993,68.766L27.331,78.677C35.524,81.704 44.477,82.002 52.853,79.525L49.857,69.393ZM30.993,68.766C24.937,66.529 19.767,62.394 16.253,56.978L7.389,62.729C12.143,70.056 19.138,75.65 27.331,78.677L30.993,68.766ZM16.253,56.978C12.739,51.562 11.071,45.155 11.495,38.714L0.952,38.018C0.377,46.734 2.635,55.402 7.389,62.729L16.253,56.978ZM11.495,38.714C11.92,32.272 14.416,26.14 18.61,21.232L10.578,14.367C4.903,21.007 1.527,29.303 0.952,38.018L11.495,38.714ZM18.61,21.232C22.805,16.325 28.473,12.904 34.77,11.482L32.442,1.175C23.922,3.1 16.253,7.727 10.578,14.367L18.61,21.232ZM34.77,11.482C41.068,10.059 47.656,10.71 53.553,13.337L57.853,3.686C49.875,0.131 40.961,-0.75 32.442,1.175L34.77,11.482ZM72.852,8.793L37.631,44.049L45.106,51.517L80.327,16.261L72.852,8.793ZM45.104,44.047L34.538,33.481L27.066,40.952L37.632,51.519L45.104,44.047Z" fill="#1E1E1E"/>
</svg>
