<svg width="48" height="48" viewBox="0 0 48 48" fill="none" xmlns="http://www.w3.org/2000/svg" xmlns:xlink="http://www.w3.org/1999/xlink">
<path d="M28,14C28,11.794 26.206,10 24,10C21.794,10 20,11.794 20,14C20,16.206 21.794,18 24,18C26.206,18 28,16.206 28,14ZM32,14C32,18.412 28.412,22 24,22C19.588,22 16,18.412 16,14C16,9.588 19.588,6 24,6C28.412,6 32,9.588 32,14ZM10,40C10,32.28 16.282,26 24,26C31.718,26 38,32.28 38,40C38,41.104 37.106,42 36,42C34.894,42 34,41.104 34,40C34,34.486 29.514,30 24,30C18.486,30 14,34.486 14,40C14,41.104 13.106,42 12,42C10.894,42 10,41.104 10,40Z" clip-rule="evenodd" fill-rule="evenodd" fill="#232233"/>
<rect  x="0" y="0" width="48" height="48" fill="#232233"/>
</svg>
