<svg width="30" height="32" viewBox="0 0 30 32" fill="none" xmlns="http://www.w3.org/2000/svg" xmlns:xlink="http://www.w3.org/1999/xlink">
<path d="M29.195,4.299C30.045,3.449 30.045,2.071 29.195,1.221C28.345,0.371 26.967,0.371 26.117,1.221L29.195,4.299ZM0.001,27.337C-0.849,28.187 -0.849,29.565 0.001,30.415C0.851,31.265 2.229,31.265 3.079,30.415L0.001,27.337ZM3.079,1.221C2.229,0.371 0.851,0.371 0.001,1.221C-0.849,2.071 -0.849,3.449 0.001,4.299L3.079,1.221ZM26.117,30.415C26.967,31.265 28.345,31.265 29.195,30.415C30.045,29.565 30.045,28.187 29.195,27.337L26.117,30.415ZM26.117,1.221L0.001,27.337L3.079,30.415L29.195,4.299L26.117,1.221ZM0.001,4.299L26.117,30.415L29.195,27.337L3.079,1.221L0.001,4.299Z" fill="#282828"/>
</svg>
