<svg width="28" height="18" viewBox="0 0 28 18" fill="none" xmlns="http://www.w3.org/2000/svg" xmlns:xlink="http://www.w3.org/1999/xlink">
<path d="M3.069,1.5C2.29,0.721 1.027,0.721 0.248,1.5C-0.531,2.279 -0.531,3.542 0.248,4.321L3.069,1.5ZM13.628,14.879L12.217,16.29C12.996,17.069 14.259,17.069 15.038,16.29L13.628,14.879ZM27.007,4.321C27.786,3.542 27.786,2.279 27.007,1.5C26.228,0.721 24.965,0.721 24.186,1.5L27.007,4.321ZM0.248,4.321L12.217,16.29L15.038,13.469L3.069,1.5L0.248,4.321ZM15.038,16.29L27.007,4.321L24.186,1.5L12.217,13.469L15.038,16.29Z" fill="#2F234F"/>
</svg>
