<svg width="70" height="70" viewBox="0 0 70 70" fill="none" xmlns="http://www.w3.org/2000/svg" xmlns:xlink="http://www.w3.org/1999/xlink">
<path d="M34.622,6.799C43.793,6.799 44.871,6.841 48.493,7.002C51.848,7.153 53.66,7.713 54.872,8.191C56.364,8.74 57.714,9.615 58.824,10.753C60.023,11.95 60.771,13.094 61.386,14.702C61.848,15.918 62.422,17.727 62.57,21.079C62.733,24.706 62.776,25.781 62.776,34.953C62.776,44.124 62.733,45.202 62.57,48.826C62.422,52.179 61.862,53.991 61.386,55.203C60.838,56.695 59.962,58.045 58.824,59.155C57.718,60.298 56.367,61.174 54.872,61.717C53.657,62.18 51.845,62.753 48.493,62.903C44.868,63.064 43.791,63.107 34.622,63.107C25.45,63.107 24.373,63.064 20.748,62.903C17.396,62.753 15.584,62.193 14.371,61.715C12.88,61.166 11.529,60.29 10.42,59.152C9.277,58.047 8.401,56.697 7.857,55.203C7.395,53.988 6.822,52.179 6.671,48.826C6.508,45.199 6.468,44.124 6.468,34.953C6.468,25.781 6.508,24.704 6.671,21.079C6.822,17.727 7.382,15.915 7.86,14.702C8.408,13.211 9.282,11.861 10.42,10.751C11.526,9.608 12.877,8.732 14.371,8.188C15.587,7.726 17.396,7.153 20.748,7.002C24.373,6.825 25.463,6.799 34.622,6.799L34.622,6.799ZM34.622,0.612C25.3,0.612 24.129,0.652 20.463,0.816C16.81,0.982 14.316,1.566 12.137,2.411C9.846,3.273 7.772,4.626 6.061,6.376C4.317,8.093 2.964,10.165 2.093,12.452C1.248,14.634 0.662,17.127 0.498,20.794C0.334,24.447 0.295,25.618 0.295,34.94C0.295,44.259 0.334,45.432 0.498,49.098C0.662,52.749 1.248,55.243 2.093,57.438C2.965,59.699 4.151,61.606 6.058,63.513C7.775,65.257 9.847,66.61 12.134,67.481C14.316,68.326 16.81,68.913 20.476,69.077C24.143,69.238 25.3,69.28 34.635,69.28C43.97,69.28 45.127,69.238 48.794,69.074C52.447,68.913 54.938,68.326 57.133,67.481C59.424,66.62 61.498,65.266 63.209,63.516C64.953,61.799 66.306,59.726 67.177,57.438C68.022,55.256 68.608,52.762 68.772,49.098C68.936,45.432 68.975,44.275 68.975,34.94C68.975,25.604 68.936,24.447 68.772,20.781C68.608,17.127 68.022,14.634 67.177,12.441C66.315,10.15 64.962,8.075 63.212,6.363C61.495,4.62 59.422,3.268 57.136,2.398C54.954,1.553 52.46,0.966 48.794,0.802C45.114,0.652 43.941,0.612 34.622,0.612Z" fill="#060606"/>
<path d="M34.622,17.32C32.306,17.321 30.012,17.777 27.873,18.664C25.733,19.55 23.789,20.85 22.152,22.488C20.514,24.126 19.216,26.07 18.33,28.21C17.444,30.35 16.988,32.643 16.988,34.959C16.988,37.275 17.445,39.569 18.332,41.708C19.218,43.848 20.518,45.792 22.155,47.43C23.793,49.067 25.738,50.366 27.878,51.252C30.018,52.138 32.311,52.594 34.627,52.593C39.305,52.593 43.79,50.734 47.097,47.426C50.404,44.118 52.262,39.632 52.261,34.954C52.26,30.277 50.401,25.791 47.093,22.484C43.785,19.177 39.299,17.32 34.622,17.32L34.622,17.32ZM34.622,46.386C33.104,46.409 31.597,46.13 30.188,45.565C28.78,45.001 27.497,44.162 26.416,43.097C25.334,42.032 24.476,40.762 23.889,39.362C23.303,37.963 23.001,36.46 23.001,34.942C23.001,33.425 23.302,31.922 23.888,30.522C24.474,29.122 25.333,27.852 26.414,26.787C27.495,25.722 28.777,24.882 30.186,24.318C31.595,23.753 33.102,23.473 34.619,23.496C37.624,23.542 40.491,24.768 42.6,26.909C44.709,29.05 45.891,31.935 45.891,34.941C45.891,37.946 44.709,40.831 42.6,42.973C40.491,45.114 37.624,46.34 34.619,46.386L34.622,46.386ZM52.949,20.725C53.489,20.725 54.025,20.619 54.524,20.412C55.023,20.205 55.477,19.902 55.859,19.52C56.241,19.138 56.544,18.684 56.751,18.185C56.958,17.685 57.065,17.15 57.065,16.61C57.065,16.069 56.958,15.534 56.751,15.035C56.544,14.535 56.241,14.082 55.859,13.7C55.477,13.317 55.023,13.014 54.524,12.807C54.025,12.601 53.489,12.494 52.949,12.494C51.858,12.494 50.811,12.928 50.039,13.7C49.267,14.471 48.833,15.518 48.833,16.61C48.833,17.701 49.267,18.748 50.039,19.52C50.811,20.292 51.858,20.725 52.949,20.725Z" fill="#060606"/>
</svg>
