<svg width="128" height="128" viewBox="0 0 128 128" fill="none" xmlns="http://www.w3.org/2000/svg" xmlns:xlink="http://www.w3.org/1999/xlink">
<path d="M126.571,40.304L65.238,8.304C64.464,7.899 63.542,7.899 62.768,8.304L1.435,40.304C0.555,40.763 0,41.669 0,42.667C0,43.664 0.555,44.571 1.435,45.029L62.768,77.029C63.152,77.232 63.579,77.333 64,77.333C64.421,77.333 64.848,77.232 65.232,77.029L126.565,45.029C127.445,44.571 128,43.664 128,42.667C128,41.669 127.445,40.763 126.571,40.304ZM64,71.664L8.432,42.667L64,13.669L119.568,42.666L64,71.664Z" fill="#FFFFFF"/>
<path d="M126.571,61.632L117.654,56.981C116.352,56.315 114.736,56.805 114.053,58.112C113.371,59.419 113.878,61.029 115.184,61.712L119.568,64L64,92.997L8.432,64L12.821,61.717C14.128,61.035 14.634,59.424 13.952,58.117C13.269,56.805 11.653,56.32 10.352,56.987L1.435,61.637C0.555,62.096 0,63.003 0,64C0,64.997 0.555,65.904 1.435,66.363L62.768,98.363C63.152,98.566 63.579,98.667 64,98.667C64.421,98.667 64.848,98.566 65.232,98.363L126.565,66.363C127.445,65.904 128,64.998 128,64C128,63.003 127.445,62.096 126.571,61.632Z" fill="#FFFFFF"/>
<path d="M126.571,82.965L117.654,78.315C116.352,77.648 114.736,78.139 114.053,79.445C113.371,80.752 113.878,82.363 115.184,83.045L119.568,85.333L64,114.331L8.432,85.333L12.821,83.051C14.128,82.368 14.634,80.757 13.952,79.451C13.269,78.144 11.653,77.648 10.352,78.32L1.435,82.971C0.555,83.429 0,84.336 0,85.333C0,86.331 0.555,87.237 1.435,87.696L62.768,119.696C63.152,119.899 63.579,120 64,120C64.421,120 64.848,119.899 65.232,119.696L126.565,87.696C127.445,87.237 128,86.331 128,85.333C128,84.336 127.445,83.429 126.571,82.965Z" fill="#FFFFFF"/>
</svg>
