<svg width="686" height="1488" viewBox="0 0 686 1488" fill="none" xmlns="http://www.w3.org/2000/svg" xmlns:xlink="http://www.w3.org/1999/xlink">
<path d="M10.755,53.343C0.304,73.855 0.304,100.706 0.304,154.409L0.304,1332.972C0.304,1386.674 0.304,1413.526 10.755,1434.038C19.948,1452.08 34.617,1466.75 52.66,1475.944C73.172,1486.394 100.023,1486.394 153.726,1486.394L532.052,1486.394C585.756,1486.394 612.606,1486.394 633.118,1475.944C651.162,1466.75 665.83,1452.08 675.024,1434.038C685.474,1413.526 685.474,1386.674 685.474,1332.972L685.474,154.409C685.474,100.706 685.474,73.855 675.024,53.343C665.83,35.3 651.162,20.631 633.118,11.438C612.606,0.986 585.756,0.986 532.052,0.986L153.726,0.986C100.023,0.986 73.172,0.986 52.66,11.438C34.617,20.631 19.948,35.3 10.755,53.343ZM265.306,21.908C247.974,21.908 233.924,35.958 233.924,53.29C233.924,70.621 247.974,84.672 265.306,84.672L420.472,84.672C437.804,84.672 451.854,70.621 451.854,53.29C451.854,35.958 437.804,21.908 420.472,21.908L265.306,21.908Z" clip-rule="evenodd" fill-rule="evenodd" fill="url(#pattern_0_713_3146)" stroke="#000000" stroke-opacity="0.15" stroke-width="0.872" stroke-miterlimit="3.999327"/>
</svg>
