<svg width="686" height="1486" viewBox="0 0 686 1486" fill="none" xmlns="http://www.w3.org/2000/svg" xmlns:xlink="http://www.w3.org/1999/xlink">
<path d="M10.8,51.64C0.349,72.151 0.349,99.003 0.349,152.705L0.349,1331.269C0.349,1384.971 0.349,1411.823 10.8,1432.335C19.993,1450.377 34.662,1465.047 52.705,1474.241C73.217,1484.691 100.068,1484.691 153.771,1484.691L532.097,1484.691C585.801,1484.691 612.651,1484.691 633.163,1474.241C651.207,1465.047 665.875,1450.377 675.069,1432.335C685.519,1411.823 685.519,1384.971 685.519,1331.269L685.519,152.706C685.519,99.003 685.519,72.151 675.069,51.64C665.875,33.597 651.207,18.928 633.163,9.734C612.651,-0.717 585.801,-0.717 532.097,-0.717L153.771,-0.717C100.068,-0.717 73.217,-0.717 52.705,9.734C34.662,18.928 19.993,33.597 10.8,51.64ZM265.351,20.205C248.019,20.205 233.969,34.255 233.969,51.587C233.969,68.919 248.019,82.969 265.351,82.969L420.517,82.969C437.849,82.969 451.899,68.919 451.899,51.587C451.899,34.255 437.849,20.205 420.517,20.205L265.351,20.205Z" clip-rule="evenodd" fill-rule="evenodd" fill="url(#pattern_0_713_849)" stroke="#000000" stroke-opacity="0.15" stroke-width="0.872" stroke-miterlimit="3.999327"/>
</svg>
