<svg width="624" height="1350" viewBox="0 0 624 1350" fill="none" xmlns="http://www.w3.org/2000/svg" xmlns:xlink="http://www.w3.org/1999/xlink">
<path d="M9.205,47.038C-0.296,65.686 -0.296,90.096 -0.296,138.917L-0.296,1210.338C-0.296,1259.16 -0.296,1283.57 9.205,1302.216C17.562,1318.62 30.898,1331.954 47.3,1340.312C65.947,1349.814 90.358,1349.814 139.179,1349.814L483.112,1349.814C531.932,1349.814 556.342,1349.814 574.99,1340.312C591.392,1331.954 604.728,1318.62 613.086,1302.216C622.586,1283.57 622.586,1259.16 622.586,1210.338L622.586,138.917C622.586,90.096 622.586,65.686 613.086,47.038C604.728,30.636 591.392,17.301 574.99,8.943C556.342,-0.558 531.932,-0.558 483.112,-0.558L139.179,-0.558C90.358,-0.558 65.947,-0.558 47.3,8.943C30.898,17.301 17.562,30.636 9.205,47.038ZM240.616,18.462C224.858,18.462 212.086,31.234 212.086,46.99C212.086,62.747 224.858,75.519 240.616,75.519L381.674,75.519C397.432,75.519 410.204,62.747 410.204,46.99C410.204,31.234 397.432,18.462 381.674,18.462L240.616,18.462Z" clip-rule="evenodd" fill-rule="evenodd" fill="url(#pattern_0_713_734)" stroke="#000000" stroke-opacity="0.15" stroke-width="0.792" stroke-miterlimit="3.999327"/>
</svg>
