<svg width="572" height="1238" viewBox="0 0 572 1238" fill="none" xmlns="http://www.w3.org/2000/svg" xmlns:xlink="http://www.w3.org/1999/xlink">
<path d="M8.261,43.338C-0.448,60.431 -0.448,82.808 -0.448,127.56L-0.448,1109.696C-0.448,1154.448 -0.448,1176.824 8.261,1193.918C15.922,1208.954 28.147,1221.178 43.182,1228.838C60.275,1237.548 82.652,1237.548 127.404,1237.548L442.676,1237.548C487.428,1237.548 509.804,1237.548 526.898,1228.838C541.932,1221.178 554.158,1208.954 561.818,1193.918C570.528,1176.824 570.528,1154.448 570.528,1109.696L570.528,127.56C570.528,82.808 570.528,60.431 561.818,43.338C554.158,28.303 541.932,16.078 526.898,8.417C509.804,-0.292 487.428,-0.292 442.676,-0.292L127.404,-0.292C82.652,-0.292 60.275,-0.292 43.182,8.417C28.147,16.078 15.922,28.303 8.261,43.338ZM220.388,17.142C205.944,17.142 194.236,28.85 194.236,43.293C194.236,57.737 205.944,69.445 220.388,69.445L349.692,69.445C364.136,69.445 375.844,57.737 375.844,43.293C375.844,28.85 364.136,17.142 349.692,17.142L220.388,17.142Z" clip-rule="evenodd" fill-rule="evenodd" fill="url(#pattern_0_713_729)" stroke="#000000" stroke-opacity="0.15" stroke-width="0.726" stroke-miterlimit="3.999327"/>
</svg>
