<svg width="572" height="1238" viewBox="0 0 572 1238" fill="none" xmlns="http://www.w3.org/2000/svg" xmlns:xlink="http://www.w3.org/1999/xlink">
<path d="M8.469,43.338C-0.24,60.431 -0.24,82.808 -0.24,127.56L-0.24,1109.696C-0.24,1154.448 -0.24,1176.824 8.469,1193.918C16.13,1208.954 28.355,1221.178 43.39,1228.838C60.483,1237.548 82.859,1237.548 127.612,1237.548L442.884,1237.548C487.636,1237.548 510.012,1237.548 527.106,1228.838C542.14,1221.178 554.366,1208.954 562.026,1193.918C570.736,1176.824 570.736,1154.448 570.736,1109.696L570.736,127.56C570.736,82.808 570.736,60.431 562.026,43.338C554.366,28.303 542.14,16.078 527.106,8.417C510.012,-0.292 487.636,-0.292 442.884,-0.292L127.612,-0.292C82.859,-0.292 60.483,-0.292 43.39,8.417C28.355,16.078 16.13,28.303 8.469,43.338ZM220.596,17.142C206.152,17.142 194.444,28.85 194.444,43.293C194.444,57.737 206.152,69.445 220.596,69.445L349.9,69.445C364.344,69.445 376.052,57.737 376.052,43.293C376.052,28.85 364.344,17.142 349.9,17.142L220.596,17.142Z" clip-rule="evenodd" fill-rule="evenodd" fill="url(#pattern_0_713_739)" stroke="#000000" stroke-opacity="0.15" stroke-width="0.726" stroke-miterlimit="3.999327"/>
</svg>
