<svg width="100" height="94" viewBox="0 0 100 94" fill="none" xmlns="http://www.w3.org/2000/svg" xmlns:xlink="http://www.w3.org/1999/xlink">
<path d="M44.141,46L47.07,46L47.07,43.07C47.07,41.454 45.757,40.141 44.141,40.141C42.524,40.141 41.211,41.454 41.211,43.07C41.211,44.687 42.524,46 44.141,46Z" fill="#000000"/>
<path d="M47.07,51.859C46.481,51.859 37.692,51.859 38.281,51.859C36.665,51.859 35.352,53.172 35.352,54.789L35.352,57.719L47.07,57.719L47.07,51.859Z" fill="#000000"/>
<path d="M58.789,43.07C58.789,41.454 57.476,40.141 55.859,40.141C54.243,40.141 52.93,41.454 52.93,43.07L52.93,46L55.859,46C57.476,46 58.789,44.687 58.789,43.07Z" fill="#000000"/>
<path d="M47.07,63.578L41.211,63.578L41.211,75.297L58.789,75.297L58.789,63.578L52.93,63.578L52.93,66.508C52.93,68.127 51.619,69.438 50,69.438C48.381,69.438 47.07,68.127 47.07,66.508L47.07,63.578Z" fill="#000000"/>
<path d="M0,84.086C0,88.932 3.943,92.875 8.789,92.875L91.211,92.875C96.057,92.875 100,88.932 100,84.086L100,28.422L0,28.422L0,84.086ZM29.492,54.789C29.492,50.738 32.262,47.352 35.997,46.339C35.589,45.326 35.352,44.227 35.352,43.07C35.352,38.224 39.294,34.281 44.141,34.281C46.4,34.281 48.441,35.162 50,36.567C51.559,35.162 53.6,34.281 55.859,34.281C60.706,34.281 64.648,38.224 64.648,43.07C64.648,44.227 64.411,45.326 64.003,46.339C67.738,47.352 70.508,50.738 70.508,54.789L70.508,60.648C70.508,62.267 69.197,63.578 67.578,63.578L64.648,63.578L64.648,78.226C64.648,79.845 63.338,81.156 61.719,81.156L38.281,81.156C36.662,81.156 35.352,79.845 35.352,78.226L35.352,63.578L32.422,63.578C30.803,63.578 29.492,62.267 29.492,60.648L29.492,54.789Z" fill="#000000"/>
<path d="M64.649,54.789C64.649,53.172 63.335,51.859 61.719,51.859C61.129,51.859 52.34,51.859 52.93,51.859L52.93,57.719L64.649,57.719L64.649,54.789Z" fill="#000000"/>
<path d="M91.211,-0.875L8.789,-0.875C3.943,-0.875 0,3.068 0,7.914L0,22.563L100,22.563L100,7.914C100,3.068 96.057,-0.875 91.211,-0.875ZM14.643,16.703C13.025,16.703 11.713,15.392 11.713,13.773C11.713,12.155 13.025,10.844 14.643,10.844C16.261,10.844 17.573,12.155 17.573,13.773C17.573,15.392 16.261,16.703 14.643,16.703ZM26.557,16.703C24.939,16.703 23.627,15.392 23.627,13.773C23.627,12.155 24.939,10.844 26.557,10.844C28.175,10.844 29.487,12.155 29.487,13.773C29.487,15.392 28.175,16.703 26.557,16.703ZM38.276,16.703C36.658,16.703 35.346,15.392 35.346,13.773C35.346,12.155 36.658,10.844 38.276,10.844C39.894,10.844 41.206,12.155 41.206,13.773C41.206,15.392 39.894,16.703 38.276,16.703ZM85.352,16.703L67.578,16.703C65.959,16.703 64.648,15.392 64.648,13.773C64.648,12.154 65.959,10.844 67.578,10.844L85.352,10.844C86.971,10.844 88.281,12.154 88.281,13.773C88.281,15.392 86.971,16.703 85.352,16.703Z" fill="#000000"/>
</svg>
