<svg width="44" height="40" viewBox="0 0 44 40" fill="none" xmlns="http://www.w3.org/2000/svg" xmlns:xlink="http://www.w3.org/1999/xlink">
<path d="M2,16L8,16L8,40L2,40C1.47,40 0.961,39.789 0.586,39.414C0.211,39.039 0,38.53 0,38L0,18C0,17.47 0.211,16.961 0.586,16.586C0.961,16.211 1.47,16 2,16ZM12.586,13.414L25.386,0.614C25.556,0.443 25.782,0.34 26.022,0.323C26.263,0.305 26.501,0.375 26.694,0.52L28.4,1.8C28.874,2.156 29.232,2.644 29.429,3.203C29.625,3.761 29.652,4.366 29.506,4.94L27.2,14L40,14C41.061,14 42.078,14.421 42.828,15.172C43.579,15.922 44,16.939 44,18L44,22.208C44.001,22.731 43.899,23.248 43.7,23.732L37.51,38.762C37.359,39.128 37.103,39.442 36.773,39.662C36.444,39.882 36.056,40 35.66,40L14,40C13.47,40 12.961,39.789 12.586,39.414C12.211,39.039 12,38.53 12,38L12,14.828C12,14.298 12.211,13.789 12.586,13.414Z" fill="#09121F"/>
</svg>
