<svg width="30" height="24" viewBox="0 0 30 24" fill="none" xmlns="http://www.w3.org/2000/svg" xmlns:xlink="http://www.w3.org/1999/xlink">
<path d="M28.314,3.747C29,6.42 29,12 29,12C29,12 29,17.58 28.314,20.253C27.933,21.731 26.819,22.893 25.407,23.286C22.844,24 14,24 14,24C14,24 5.16,24 2.592,23.286C1.175,22.887 0.062,21.726 -0.314,20.253C-1,17.58 -1,12 -1,12C-1,12 -1,6.42 -0.314,3.747C0.067,2.269 1.181,1.107 2.592,0.714C5.16,0 14,0 14,0C14,0 22.844,0 25.407,0.714C26.825,1.113 27.938,2.274 28.314,3.747L28.314,3.747ZM11,17.25L20,12L11,6.75L11,17.25Z" fill="#FFFFFF"/>
</svg>
