<svg width="40" height="36" viewBox="0 0 40 36" fill="none" xmlns="http://www.w3.org/2000/svg" xmlns:xlink="http://www.w3.org/1999/xlink">
<path d="M2,0L38,0C38.53,0 39.039,0.211 39.414,0.586C39.789,0.961 40,1.47 40,2L40,34C40,34.53 39.789,35.039 39.414,35.414C39.039,35.789 38.53,36 38,36L2,36C1.47,36 0.961,35.789 0.586,35.414C0.211,35.039 0,34.53 0,34L0,2C0,1.47 0.211,0.961 0.586,0.586C0.961,0.211 1.47,0 2,0ZM20.12,17.366L7.296,6.476L4.706,9.524L20.146,22.634L35.308,9.514L32.692,6.488L20.122,17.366L20.12,17.366Z" fill="#09121F"/>
</svg>
