<svg width="42" height="34" viewBox="0 0 42 34" fill="none" xmlns="http://www.w3.org/2000/svg" xmlns:xlink="http://www.w3.org/1999/xlink">
<path d="M40.324,3.312C38.797,3.987 37.178,4.431 35.52,4.628C37.268,3.583 38.576,1.938 39.2,0C37.56,0.976 35.762,1.66 33.888,2.03C32.629,0.683 30.961,-0.21 29.142,-0.511C27.323,-0.812 25.456,-0.503 23.831,0.367C22.205,1.237 20.913,2.619 20.154,4.3C19.396,5.98 19.214,7.864 19.636,9.658C16.31,9.491 13.057,8.627 10.087,7.121C7.117,5.616 4.496,3.502 2.396,0.918C1.653,2.195 1.262,3.646 1.264,5.124C1.264,8.024 2.74,10.586 4.984,12.086C3.656,12.044 2.357,11.686 1.196,11.04L1.196,11.144C1.197,13.075 1.865,14.947 3.088,16.442C4.311,17.937 6.013,18.963 7.906,19.346C6.673,19.68 5.381,19.729 4.126,19.49C4.66,21.152 5.7,22.606 7.101,23.648C8.502,24.69 10.194,25.267 11.94,25.3C10.205,26.663 8.218,27.67 6.094,28.264C3.969,28.859 1.748,29.028 -0.442,28.764C3.382,31.223 7.832,32.528 12.378,32.524C27.764,32.524 36.178,19.778 36.178,8.724C36.178,8.364 36.168,8 36.152,7.644C37.79,6.46 39.203,4.994 40.326,3.314L40.324,3.312Z" fill="#09121F"/>
</svg>
