<svg width="46" height="38" viewBox="0 0 46 38" fill="none" xmlns="http://www.w3.org/2000/svg" xmlns:xlink="http://www.w3.org/1999/xlink">
<path d="M44.74,4.439C43.061,5.182 41.28,5.669 39.457,5.886C41.379,4.737 42.817,2.928 43.504,0.797C41.7,1.87 39.723,2.622 37.663,3.029C36.278,1.548 34.444,0.566 32.444,0.235C30.444,-0.096 28.39,0.244 26.603,1.2C24.816,2.157 23.395,3.677 22.56,5.525C21.726,7.372 21.526,9.444 21.991,11.417C18.333,11.234 14.756,10.283 11.49,8.628C8.224,6.972 5.342,4.648 3.033,1.806C2.215,3.21 1.786,4.807 1.788,6.431C1.788,9.62 3.411,12.438 5.879,14.087C4.418,14.041 2.99,13.647 1.713,12.937L1.713,13.051C1.714,15.175 2.449,17.233 3.793,18.877C5.138,20.521 7.01,21.649 9.092,22.07C7.736,22.438 6.315,22.492 4.935,22.229C5.522,24.057 6.666,25.656 8.207,26.801C9.748,27.947 11.608,28.582 13.528,28.618C11.62,30.116 9.435,31.224 7.099,31.877C4.763,32.531 2.321,32.718 -0.088,32.427C4.116,35.131 9.011,36.566 14.009,36.561C30.928,36.561 40.181,22.545 40.181,10.39C40.181,9.994 40.17,9.594 40.152,9.202C41.953,7.901 43.507,6.288 44.742,4.441L44.74,4.439Z" fill="#FFFFFF"/>
</svg>
