<svg width="44" height="48" viewBox="0 0 44 48" fill="none" xmlns="http://www.w3.org/2000/svg" xmlns:xlink="http://www.w3.org/1999/xlink">
<path d="M0.598,26.59L13.793,26.59L13.793,22.191L0.598,22.191L0.598,2.06C0.598,1.868 0.648,1.681 0.742,1.515C0.837,1.349 0.973,1.21 1.138,1.113C1.302,1.016 1.489,0.963 1.68,0.96C1.871,0.957 2.06,1.004 2.227,1.096L42.83,23.427C43.002,23.522 43.146,23.662 43.246,23.831C43.346,24.001 43.399,24.194 43.399,24.391C43.399,24.588 43.346,24.781 43.246,24.95C43.146,25.12 43.002,25.259 42.83,25.354L2.227,47.685C2.06,47.777 1.871,47.824 1.68,47.821C1.489,47.818 1.302,47.766 1.138,47.668C0.973,47.571 0.837,47.433 0.742,47.267C0.648,47.101 0.598,46.913 0.598,46.722L0.598,26.59Z" fill="#FFFFFF"/>
</svg>
