<svg width="42" height="34" viewBox="0 0 42 34" fill="none" xmlns="http://www.w3.org/2000/svg" xmlns:xlink="http://www.w3.org/1999/xlink">
<path d="M40.325,3.312C38.798,3.987 37.179,4.431 35.521,4.628C37.268,3.583 38.576,1.938 39.201,0C37.561,0.976 35.763,1.66 33.889,2.03C32.63,0.683 30.961,-0.21 29.143,-0.511C27.324,-0.812 25.456,-0.503 23.831,0.367C22.206,1.237 20.913,2.619 20.155,4.3C19.396,5.98 19.214,7.864 19.637,9.658C16.311,9.491 13.057,8.627 10.087,7.121C7.117,5.616 4.497,3.502 2.397,0.918C1.653,2.195 1.263,3.646 1.265,5.124C1.265,8.024 2.741,10.586 4.985,12.086C3.657,12.044 2.358,11.686 1.197,11.04L1.197,11.144C1.197,13.075 1.865,14.947 3.088,16.442C4.311,17.937 6.014,18.963 7.907,19.346C6.674,19.68 5.381,19.729 4.127,19.49C4.66,21.152 5.701,22.606 7.102,23.648C8.503,24.69 10.195,25.267 11.941,25.3C10.206,26.663 8.219,27.67 6.094,28.264C3.97,28.859 1.749,29.028 -0.441,28.764C3.382,31.223 7.833,32.528 12.379,32.524C27.765,32.524 36.179,19.778 36.179,8.724C36.179,8.364 36.169,8 36.153,7.644C37.79,6.46 39.204,4.994 40.327,3.314L40.325,3.312Z" fill="#232233"/>
</svg>
