<svg width="36" height="36" viewBox="0 0 36 36" fill="none" xmlns="http://www.w3.org/2000/svg" xmlns:xlink="http://www.w3.org/1999/xlink">
<path d="M0,1.986C0,0.89 0.89,0 1.986,0L34.014,0C35.11,0 36,0.89 36,1.986L36,34.014C35.999,34.541 35.79,35.045 35.418,35.418C35.045,35.79 34.541,35.999 34.014,36L1.986,36C1.459,35.999 0.955,35.79 0.582,35.418C0.21,35.045 0.001,34.541 0,34.014L0,1.986ZM15.244,10.83C15.124,10.75 14.984,10.704 14.839,10.696C14.695,10.689 14.551,10.722 14.423,10.79C14.296,10.858 14.189,10.959 14.114,11.083C14.04,11.207 14,11.349 14,11.494L14,24.506C14,24.651 14.04,24.793 14.114,24.917C14.189,25.041 14.296,25.142 14.423,25.21C14.551,25.278 14.695,25.311 14.839,25.304C14.984,25.296 15.124,25.25 15.244,25.17L25.002,18.666C25.112,18.593 25.202,18.494 25.264,18.378C25.326,18.262 25.359,18.132 25.359,18C25.359,17.868 25.326,17.738 25.264,17.622C25.202,17.506 25.112,17.407 25.002,17.334L15.242,10.83L15.244,10.83Z" fill="#09121F"/>
</svg>
