<svg width="74" height="68" viewBox="0 0 74 68" fill="none" xmlns="http://www.w3.org/2000/svg" xmlns:xlink="http://www.w3.org/1999/xlink">
<path d="M2.996,0.996L68.973,0.996C69.945,0.996 70.878,1.383 71.565,2.07C72.253,2.757 72.639,3.69 72.639,4.662L72.639,63.309C72.639,64.281 72.253,65.213 71.565,65.901C70.878,66.588 69.945,66.974 68.973,66.974L2.996,66.974C2.023,66.974 1.091,66.588 0.404,65.901C-0.284,65.213 -0.67,64.281 -0.67,63.309L-0.67,4.662C-0.67,3.69 -0.284,2.757 0.404,2.07C1.091,1.383 2.023,0.996 2.996,0.996L2.996,0.996ZM36.204,32.823L12.702,12.865L7.955,18.451L36.252,42.478L64.04,18.433L59.245,12.887L36.208,32.823L36.204,32.823Z" fill="#FFFFFF"/>
</svg>
