<svg width="40" height="40" viewBox="0 0 40 40" fill="none" xmlns="http://www.w3.org/2000/svg" xmlns:xlink="http://www.w3.org/1999/xlink">
<path d="M20,0C25.434,0 26.112,0.02 28.244,0.12C30.374,0.22 31.824,0.554 33.1,1.05C34.42,1.558 35.532,2.246 36.644,3.356C37.661,4.356 38.448,5.565 38.95,6.9C39.444,8.174 39.78,9.626 39.88,11.756C39.974,13.888 40,14.566 40,20C40,25.434 39.98,26.112 39.88,28.244C39.78,30.374 39.444,31.824 38.95,33.1C38.449,34.436 37.662,35.645 36.644,36.644C35.644,37.661 34.435,38.448 33.1,38.95C31.826,39.444 30.374,39.78 28.244,39.88C26.112,39.974 25.434,40 20,40C14.566,40 13.888,39.98 11.756,39.88C9.626,39.78 8.176,39.444 6.9,38.95C5.565,38.449 4.355,37.662 3.356,36.644C2.339,35.644 1.552,34.435 1.05,33.1C0.554,31.826 0.22,30.374 0.12,28.244C0.026,26.112 0,25.434 0,20C0,14.566 0.02,13.888 0.12,11.756C0.22,9.624 0.554,8.176 1.05,6.9C1.55,5.564 2.338,4.355 3.356,3.356C4.355,2.338 5.565,1.551 6.9,1.05C8.176,0.554 9.624,0.22 11.756,0.12C13.888,0.026 14.566,0 20,0ZM20,10C17.348,10 14.804,11.054 12.929,12.929C11.054,14.804 10,17.348 10,20C10,22.652 11.054,25.196 12.929,27.071C14.804,28.946 17.348,30 20,30C22.652,30 25.196,28.946 27.071,27.071C28.946,25.196 30,22.652 30,20C30,17.348 28.946,14.804 27.071,12.929C25.196,11.054 22.652,10 20,10ZM33,9.5C33,8.837 32.737,8.201 32.268,7.732C31.799,7.263 31.163,7 30.5,7C29.837,7 29.201,7.263 28.732,7.732C28.263,8.201 28,8.837 28,9.5C28,10.163 28.263,10.799 28.732,11.268C29.201,11.737 29.837,12 30.5,12C31.163,12 31.799,11.737 32.268,11.268C32.737,10.799 33,10.163 33,9.5ZM20,14C21.591,14 23.117,14.632 24.243,15.757C25.368,16.883 26,18.409 26,20C26,21.591 25.368,23.117 24.243,24.243C23.117,25.368 21.591,26 20,26C18.409,26 16.883,25.368 15.757,24.243C14.632,23.117 14,21.591 14,20C14,18.409 14.632,16.883 15.757,15.757C16.883,14.632 18.409,14 20,14Z" fill="#09121F"/>
</svg>
