<svg width="28" height="28" viewBox="0 0 28 28" fill="none" xmlns="http://www.w3.org/2000/svg" xmlns:xlink="http://www.w3.org/1999/xlink">
<path d="M27.5,20.63L27.5,25.934C27.5,26.314 27.356,26.679 27.097,26.957C26.838,27.235 26.484,27.404 26.105,27.431C25.449,27.476 24.914,27.5 24.5,27.5C11.245,27.5 0.5,16.756 0.5,3.5C0.5,3.086 0.523,2.55 0.569,1.895C0.596,1.516 0.765,1.162 1.043,0.903C1.321,0.644 1.686,0.5 2.066,0.5L7.37,0.5C7.556,0.5 7.736,0.569 7.874,0.694C8.012,0.818 8.098,0.99 8.117,1.175C8.151,1.52 8.183,1.794 8.213,2.003C8.511,4.083 9.122,6.107 10.025,8.005C10.168,8.305 10.074,8.663 9.804,8.855L6.568,11.168C8.547,15.78 12.222,19.455 16.833,21.434L19.143,18.203C19.238,18.071 19.376,17.976 19.533,17.935C19.69,17.895 19.856,17.91 20.003,17.979C21.901,18.881 23.923,19.49 26.003,19.787C26.212,19.817 26.486,19.85 26.828,19.883C27.013,19.902 27.184,19.989 27.309,20.127C27.433,20.265 27.502,20.444 27.501,20.63L27.5,20.63Z" fill="#FFFFFF"/>
</svg>
