<svg width="60" height="54" viewBox="0 0 60 54" fill="none" xmlns="http://www.w3.org/2000/svg" xmlns:xlink="http://www.w3.org/1999/xlink">
<path d="M5.666,47.417L52.333,47.417L52.333,27L58.166,27L58.166,50.333C58.166,51.107 57.859,51.849 57.312,52.396C56.765,52.943 56.023,53.25 55.25,53.25L2.75,53.25C1.976,53.25 1.234,52.943 0.687,52.396C0.14,51.849 -0.167,51.107 -0.167,50.333L-0.167,27L5.666,27L5.666,47.417ZM34.833,18.25L49.416,18.25L29,38.667L8.583,18.25L23.166,18.25L23.166,0.75L34.833,0.75L34.833,18.25Z" fill="#FFFFFF"/>
</svg>
