<svg width="46" height="46" viewBox="0 0 46 46" fill="none" xmlns="http://www.w3.org/2000/svg" xmlns:xlink="http://www.w3.org/1999/xlink">
<path d="M22.391,0.399C28.366,0.399 29.112,0.421 31.456,0.531C33.799,0.64 35.393,1.008 36.796,1.553C38.248,2.112 39.47,2.868 40.693,4.089C41.812,5.188 42.677,6.518 43.229,7.986C43.772,9.387 44.142,10.984 44.252,13.326C44.355,15.67 44.384,16.416 44.384,22.391C44.384,28.367 44.362,29.112 44.252,31.457C44.142,33.799 43.772,35.393 43.229,36.796C42.678,38.265 41.813,39.595 40.693,40.693C39.594,41.811 38.264,42.677 36.796,43.229C35.395,43.772 33.799,44.142 31.456,44.252C29.112,44.355 28.366,44.384 22.391,44.384C16.416,44.384 15.67,44.362 13.326,44.252C10.983,44.142 9.389,43.772 7.986,43.229C6.517,42.678 5.187,41.813 4.089,40.693C2.97,39.594 2.105,38.264 1.553,36.796C1.008,35.395 0.64,33.799 0.53,31.457C0.427,29.112 0.398,28.367 0.398,22.391C0.398,16.416 0.42,15.67 0.53,13.326C0.64,10.981 1.008,9.389 1.553,7.986C2.103,6.517 2.969,5.187 4.089,4.089C5.188,2.97 6.518,2.105 7.986,1.553C9.389,1.008 10.981,0.64 13.326,0.531C15.67,0.427 16.416,0.399 22.391,0.399ZM22.391,11.395C19.475,11.395 16.678,12.553 14.615,14.616C12.553,16.678 11.395,19.475 11.395,22.391C11.395,25.308 12.553,28.105 14.615,30.167C16.678,32.229 19.475,33.388 22.391,33.388C25.307,33.388 28.104,32.229 30.167,30.167C32.229,28.105 33.387,25.308 33.387,22.391C33.387,19.475 32.229,16.678 30.167,14.616C28.104,12.553 25.307,11.395 22.391,11.395L22.391,11.395ZM36.686,10.845C36.686,10.116 36.397,9.417 35.881,8.901C35.365,8.386 34.666,8.096 33.937,8.096C33.208,8.096 32.509,8.386 31.993,8.901C31.478,9.417 31.188,10.116 31.188,10.845C31.188,11.574 31.478,12.273 31.993,12.789C32.509,13.304 33.208,13.594 33.937,13.594C34.666,13.594 35.365,13.304 35.881,12.789C36.397,12.273 36.686,11.574 36.686,10.845ZM22.391,15.793C24.141,15.793 25.819,16.489 27.056,17.726C28.294,18.963 28.989,20.641 28.989,22.391C28.989,24.141 28.294,25.819 27.056,27.057C25.819,28.294 24.141,28.989 22.391,28.989C20.641,28.989 18.963,28.294 17.726,27.057C16.488,25.819 15.793,24.141 15.793,22.391C15.793,20.641 16.488,18.963 17.726,17.726C18.963,16.489 20.641,15.793 22.391,15.793L22.391,15.793Z" fill="#FFFFFF"/>
</svg>
