<svg width="94" height="88" viewBox="0 0 94 88" fill="none" xmlns="http://www.w3.org/2000/svg" xmlns:xlink="http://www.w3.org/1999/xlink">
<path d="M79.937,0.738L11.965,0.738C4.858,0.738 -0.924,6.521 -0.924,13.627L-0.924,55.225C-0.924,62.318 4.833,68.09 11.919,68.114L11.919,86.991L39.046,68.115L79.937,68.115C87.044,68.115 92.826,62.333 92.826,55.225L92.826,13.627C92.826,6.521 87.044,0.738 79.937,0.738ZM67.734,49.08L24.169,49.08L24.169,43.587L67.734,43.587L67.734,49.08ZM67.734,37.361L24.169,37.361L24.169,31.868L67.734,31.868L67.734,37.361ZM67.734,25.642L24.169,25.642L24.169,20.149L67.734,20.149L67.734,25.642Z" fill="#000000"/>
</svg>
