<svg width="36" height="70" viewBox="0 0 36 70" fill="none" xmlns="http://www.w3.org/2000/svg" xmlns:xlink="http://www.w3.org/1999/xlink">
<path d="M10.498,69.293L23.048,69.293L23.048,38.537L32.809,38.537L34.405,26.307L23.046,26.307L23.046,17.862C23.046,15.91 23.405,14.475 24.124,13.559C24.998,12.484 26.673,11.966 29.063,11.966L35.477,11.966L35.477,1.13C33.089,0.771 29.94,0.612 26.118,0.612C21.376,0.612 17.591,2.007 14.765,4.836C11.896,7.663 10.498,11.607 10.498,16.707L10.498,26.389L0.223,26.389L0.223,38.619L10.498,38.619L10.498,69.293Z" clip-rule="evenodd" fill-rule="evenodd" fill="#0B1622"/>
</svg>
