<svg width="32" height="26" viewBox="0 0 32 26" fill="none" xmlns="http://www.w3.org/2000/svg" xmlns:xlink="http://www.w3.org/1999/xlink">
<path d="M31.243,2.484C30.098,2.99 28.883,3.323 27.64,3.471C28.951,2.687 29.931,1.453 30.4,0C29.17,0.732 27.821,1.245 26.416,1.522C25.472,0.512 24.22,-0.158 22.856,-0.383C21.492,-0.609 20.092,-0.377 18.873,0.275C17.654,0.928 16.685,1.964 16.116,3.225C15.547,4.485 15.41,5.898 15.727,7.243C13.233,7.118 10.792,6.47 8.565,5.341C6.337,4.212 4.372,2.626 2.797,0.688C2.239,1.646 1.946,2.735 1.948,3.843C1.948,6.018 3.055,7.939 4.738,9.064C3.742,9.033 2.768,8.764 1.897,8.28L1.897,8.358C1.897,9.806 2.399,11.21 3.316,12.331C4.233,13.453 5.51,14.222 6.929,14.509C6.005,14.76 5.035,14.797 4.094,14.617C4.495,15.864 5.275,16.955 6.326,17.736C7.377,18.517 8.646,18.951 9.955,18.975C8.654,19.997 7.164,20.752 5.57,21.198C3.977,21.644 2.311,21.771 0.668,21.573C3.536,23.417 6.874,24.396 10.283,24.393C21.823,24.393 28.133,14.833 28.133,6.543C28.133,6.273 28.126,6 28.114,5.733C29.342,4.845 30.402,3.745 31.244,2.485L31.243,2.484Z" fill="#FFFFFF"/>
</svg>
