<svg width="42" height="42" viewBox="0 0 42 42" fill="none" xmlns="http://www.w3.org/2000/svg" xmlns:xlink="http://www.w3.org/1999/xlink">
<path d="M32.062,29.234L40.628,37.798L37.798,40.628L29.234,32.062C26.047,34.616 22.084,36.006 18,36C8.064,36 0,27.936 0,18C0,8.064 8.064,0 18,0C27.936,0 36,8.064 36,18C36.006,22.084 34.616,26.047 32.062,29.234ZM28.05,27.75C30.588,25.14 32.006,21.641 32,18C32,10.264 25.734,4 18,4C10.264,4 4,10.264 4,18C4,25.734 10.264,32 18,32C21.641,32.006 25.14,30.588 27.75,28.05L28.05,27.75Z" fill="#09121F"/>
</svg>
