<svg width="66" height="58" viewBox="0 0 66 58" fill="none" xmlns="http://www.w3.org/2000/svg" xmlns:xlink="http://www.w3.org/1999/xlink">
<path d="M3.834,22.25L12.584,22.25L12.584,57.25L3.834,57.25C3.06,57.25 2.318,56.943 1.771,56.396C1.224,55.849 0.917,55.107 0.917,54.333L0.917,25.167C0.917,24.393 1.224,23.651 1.771,23.104C2.318,22.557 3.06,22.25 3.834,22.25L3.834,22.25ZM19.272,18.479L37.938,-0.188C38.186,-0.437 38.516,-0.588 38.866,-0.613C39.217,-0.638 39.565,-0.536 39.846,-0.325L42.334,1.542C43.025,2.06 43.547,2.772 43.834,3.587C44.121,4.402 44.16,5.284 43.947,6.121L40.584,19.333L59.25,19.333C60.797,19.333 62.281,19.948 63.375,21.042C64.469,22.136 65.084,23.62 65.084,25.167L65.084,31.303C65.084,32.066 64.936,32.821 64.646,33.526L55.619,55.445C55.399,55.979 55.025,56.436 54.545,56.757C54.064,57.079 53.499,57.25 52.921,57.25L21.334,57.25C20.56,57.25 19.818,56.943 19.271,56.396C18.724,55.849 18.417,55.107 18.417,54.333L18.417,20.541C18.417,19.767 18.725,19.026 19.272,18.479Z" fill="#FFFFFF"/>
</svg>
