<svg width="30" height="32" viewBox="0 0 30 32" fill="none" xmlns="http://www.w3.org/2000/svg" xmlns:xlink="http://www.w3.org/1999/xlink">
<path d="M14,1C18.075,1 18.584,1.015 20.183,1.09C21.781,1.165 22.868,1.416 23.825,1.787C24.815,2.169 25.649,2.684 26.483,3.517C27.246,4.267 27.836,5.174 28.213,6.175C28.583,7.131 28.835,8.22 28.91,9.817C28.981,11.416 29,11.925 29,16C29,20.075 28.985,20.584 28.91,22.183C28.835,23.781 28.583,24.868 28.213,25.825C27.837,26.827 27.247,27.734 26.483,28.483C25.733,29.245 24.826,29.836 23.825,30.213C22.869,30.583 21.781,30.835 20.183,30.91C18.584,30.981 18.075,31 14,31C9.925,31 9.416,30.985 7.817,30.91C6.219,30.835 5.132,30.583 4.175,30.213C3.173,29.837 2.266,29.246 1.517,28.483C0.754,27.733 0.164,26.826 -0.212,25.825C-0.584,24.869 -0.835,23.781 -0.91,22.183C-0.981,20.584 -1,20.075 -1,16C-1,11.925 -0.985,11.416 -0.91,9.817C-0.835,8.218 -0.584,7.132 -0.212,6.175C0.163,5.173 0.753,4.266 1.517,3.517C2.267,2.754 3.174,2.164 4.175,1.787C5.132,1.416 6.218,1.165 7.817,1.09C9.416,1.019 9.925,1 14,1ZM14,8.5C12.011,8.5 10.103,9.29 8.697,10.697C7.29,12.103 6.5,14.011 6.5,16C6.5,17.989 7.29,19.897 8.697,21.303C10.103,22.71 12.011,23.5 14,23.5C15.989,23.5 17.897,22.71 19.303,21.303C20.71,19.897 21.5,17.989 21.5,16C21.5,14.011 20.71,12.103 19.303,10.697C17.897,9.29 15.989,8.5 14,8.5L14,8.5ZM23.75,8.125C23.75,7.628 23.552,7.151 23.201,6.799C22.849,6.448 22.372,6.25 21.875,6.25C21.378,6.25 20.901,6.448 20.549,6.799C20.198,7.151 20,7.628 20,8.125C20,8.622 20.198,9.099 20.549,9.451C20.901,9.802 21.378,10 21.875,10C22.372,10 22.849,9.802 23.201,9.451C23.552,9.099 23.75,8.622 23.75,8.125ZM14,11.5C15.193,11.5 16.338,11.974 17.182,12.818C18.026,13.662 18.5,14.807 18.5,16C18.5,17.193 18.026,18.338 17.182,19.182C16.338,20.026 15.193,20.5 14,20.5C12.807,20.5 11.662,20.026 10.818,19.182C9.974,18.338 9.5,17.193 9.5,16C9.5,14.807 9.974,13.662 10.818,12.818C11.662,11.974 12.807,11.5 14,11.5L14,11.5Z" fill="#FFFFFF"/>
</svg>
