<svg width="58" height="100" viewBox="0 0 58 100" fill="none" xmlns="http://www.w3.org/2000/svg" xmlns:xlink="http://www.w3.org/1999/xlink">
<path d="M49.037,0L6.963,0C2.936,0 -0.314,3.265 -0.314,7.284L-0.314,92.723C-0.314,96.739 2.936,100 6.963,100L49.037,100C53.056,100 56.314,96.739 56.314,92.723L56.314,7.284C56.314,3.265 53.056,0 49.037,0ZM17.618,4.424L38.389,4.424C38.914,4.424 39.34,5.207 39.34,6.177C39.34,7.146 38.914,7.933 38.389,7.933L17.618,7.933C17.09,7.933 16.67,7.146 16.67,6.177C16.67,5.207 17.09,4.424 17.618,4.424ZM28.003,92.81C25.442,92.81 23.357,90.726 23.357,88.16C23.357,85.595 25.442,83.518 28.003,83.518C30.558,83.518 32.642,85.595 32.642,88.16C32.642,90.726 30.558,92.81 28.003,92.81ZM50.863,76.889L5.141,76.889L5.141,12.291L50.863,12.291L50.863,76.889Z" fill="#FFFFFF"/>
</svg>
