<svg width="1960" height="1952" viewBox="0 0 1960 1952" fill="none" xmlns="http://www.w3.org/2000/svg" xmlns:xlink="http://www.w3.org/1999/xlink">
<path d="M181.832,1951.998C157.441,1951.998 133.175,1949.626 109.16,1944.934C68.744,1936.994 17.158,1915.908 0.799,1860.69L16.531,1853.628C30.128,1899.41 75.857,1917.506 111.838,1924.568C198.233,1941.582 288.477,1926.58 372.865,1881.21C457.251,1835.79 527.539,1764.436 576.113,1674.78C582.013,1663.954 587.953,1651.94 593.643,1639.102C592.555,1638.588 591.467,1638.02 590.379,1637.454C542.769,1613.118 486.831,1557.54 485.827,1481.134C485.325,1441.334 507.749,1400.656 540.425,1382.198C566.323,1367.556 592.931,1370.96 611.633,1391.324C624.353,1405.192 633.263,1425.97 638.243,1452.986C649.665,1515.42 636.653,1576.72 617.197,1627.452C727.023,1669.572 886.425,1627.296 997.421,1459.74C1029.971,1410.606 1055.661,1356.06 1076.119,1299.348C1001.229,1235.212 930.941,1136.172 870.067,1007.128C821.953,910.048 777.061,804.358 774.843,690.47C773.713,631.696 786.767,572.098 811.703,522.706C838.437,469.656 877.095,433.412 920.523,420.678C1018.967,391.702 1115.697,484.968 1152.389,591.844C1189.625,700.318 1182.345,823.382 1168.957,940.156C1156.657,1047.394 1137.537,1173.448 1097.037,1291.872C1144.859,1330.282 1194.395,1353.844 1244.265,1361.216C1352.625,1377.302 1459.565,1318.836 1562.151,1187.522C1657.457,1063.892 1722.683,903.14 1745.695,734.912C1746.071,732.178 1746.447,729.394 1746.823,726.508C1737.325,729.756 1727.577,732.23 1717.621,733.88C1656.285,742.954 1596.959,710.732 1569.807,653.814C1554.243,621.178 1551.315,578.954 1561.983,540.906C1571.355,507.548 1589.637,482.802 1613.527,471.202C1667.331,445.166 1725.987,491.052 1749.501,548.434C1769.039,596.072 1770.295,650.514 1766.781,696.348C1808.953,674.59 1844.767,634.738 1873.677,577.356C1906.309,512.602 1928.485,426.968 1936.057,336.332C1951.537,193.521 1938.525,87.367 1896.227,11.528L1910.033,-0.124C1954.759,80.149 1968.691,190.994 1952.667,338.806C1944.843,432.174 1921.831,520.902 1887.859,588.286C1855.603,652.318 1813.513,696.862 1764.521,719.444C1763.767,726.044 1762.973,732.386 1762.137,738.418C1738.581,910.614 1671.809,1075.234 1574.201,1201.804C1467.765,1338.066 1356.099,1398.594 1242.215,1381.684C1190.629,1374.054 1139.503,1350.028 1090.219,1310.948C1069.383,1368.022 1043.319,1422.98 1010.349,1472.732C920.941,1607.706 757.187,1706.796 609.499,1646.166C603.223,1660.654 596.571,1674.058 590.003,1686.122C539.631,1779.078 466.875,1853.008 379.559,1900.028C315.629,1934.416 248.439,1951.946 181.874,1951.946L181.832,1951.998ZM572.097,1393.696C564.231,1393.696 555.863,1396.068 547.371,1400.862C524.737,1413.7 502.061,1445.252 502.521,1480.774C503.357,1547.23 553.813,1596.414 596.739,1618.378C598.203,1619.15 599.709,1619.872 601.215,1620.594C619.791,1572.854 632.385,1515.316 621.801,1457.47C617.659,1434.734 610.463,1417.618 600.421,1406.688C592.513,1398.026 582.723,1393.644 572.055,1393.644L572.097,1393.696ZM955.249,436.402C944.539,436.402 934.163,437.846 924.331,440.732C857.975,460.272 788.859,554.258 791.495,689.954C793.629,798.996 837.391,901.746 884.375,996.558C943.367,1121.53 1011.019,1217.58 1082.771,1280.014C1121.681,1164.736 1140.257,1041.928 1152.263,937.218C1165.317,823.382 1172.471,703.668 1136.867,599.782C1099.631,491.308 1021.311,436.298 955.249,436.298L955.249,436.402ZM1645.031,484.658C1636.455,484.658 1627.837,486.514 1619.511,490.536C1600.265,499.868 1585.413,520.18 1577.673,547.764C1568.719,579.676 1571.187,616.384 1584.115,643.45C1607.921,693.408 1660.679,721.558 1715.361,713.516C1726.993,711.558 1738.289,708.514 1749.167,704.288C1753.393,659.434 1753.559,604.422 1734.481,557.816C1718.039,517.706 1681.473,484.606 1645.031,484.606L1645.031,484.658Z" transform="rotate(180 979.939 975.936)" fill="#1E5AF9" fill-opacity="0.04"/>
</svg>
