<svg width="70" height="64" viewBox="0 0 70 64" fill="none" xmlns="http://www.w3.org/2000/svg" xmlns:xlink="http://www.w3.org/1999/xlink">
<path d="M37.575,19.559L23.976,19.559L23.976,63.7L38.132,63.7L38.132,42.404C38.132,36.775 39.242,31.341 46.617,31.341C53.874,31.341 53.992,37.765 53.992,42.76L53.992,63.7L68.151,63.7L68.151,40.066C68.151,28.485 65.494,19.565 51.177,19.565C44.279,19.565 39.678,23.094 37.776,26.504L37.578,26.504L37.578,19.559L37.575,19.559ZM6.848,14.686C8.803,14.683 10.678,13.905 12.06,12.523C13.443,11.14 14.221,9.266 14.224,7.311C14.221,5.354 13.443,3.479 12.06,2.096C10.677,0.713 8.802,-0.065 6.846,-0.067C4.89,-0.065 3.015,0.712 1.632,2.095C0.249,3.478 -0.529,5.352 -0.532,7.308C-0.529,9.264 0.249,11.138 1.632,12.521C3.015,13.903 4.89,14.681 6.846,14.683L6.848,14.686ZM14.224,19.565L-0.493,19.565L-0.493,63.7L14.221,63.7L14.221,19.559L14.224,19.565Z" clip-rule="evenodd" fill-rule="evenodd" fill="#0B1622"/>
</svg>
