<svg width="68" height="68" viewBox="0 0 68 68" fill="none" xmlns="http://www.w3.org/2000/svg" xmlns:xlink="http://www.w3.org/1999/xlink">
<path d="M66.974,50.187L66.974,63.148C66.974,64.076 66.623,64.969 65.99,65.648C65.357,66.327 64.491,66.741 63.565,66.806C61.963,66.916 60.655,66.974 59.643,66.974C27.252,66.974 0.996,40.719 0.996,8.327C0.996,7.316 1.051,6.007 1.165,4.405C1.23,3.479 1.643,2.613 2.322,1.98C3.001,1.348 3.895,0.996 4.823,0.996L17.784,0.996C18.238,0.996 18.677,1.164 19.014,1.469C19.352,1.774 19.564,2.193 19.609,2.646C19.693,3.489 19.77,4.16 19.844,4.669C20.572,9.753 22.065,14.697 24.272,19.335C24.62,20.068 24.392,20.944 23.733,21.413L15.823,27.065C20.659,38.334 29.64,47.315 40.909,52.151L46.554,44.256C46.784,43.933 47.121,43.702 47.505,43.602C47.889,43.502 48.295,43.54 48.654,43.71C53.291,45.912 58.234,47.401 63.316,48.127C63.825,48.2 64.496,48.281 65.332,48.361C65.783,48.407 66.202,48.62 66.506,48.957C66.81,49.294 66.978,49.732 66.978,50.187L66.974,50.187Z" fill="#FFFFFF"/>
</svg>
