<svg width="46" height="36" viewBox="0 0 46 36" fill="none" xmlns="http://www.w3.org/2000/svg" xmlns:xlink="http://www.w3.org/1999/xlink">
<path d="M43.379,6.291C44.384,10.21 44.384,18.391 44.384,18.391C44.384,18.391 44.384,26.572 43.379,30.491C42.82,32.658 41.186,34.362 39.116,34.938C35.358,35.985 22.391,35.985 22.391,35.985C22.391,35.985 9.431,35.985 5.666,34.938C3.587,34.353 1.956,32.651 1.403,30.491C0.398,26.572 0.398,18.391 0.398,18.391C0.398,18.391 0.398,10.21 1.403,6.291C1.962,4.124 3.596,2.42 5.666,1.844C9.431,0.797 22.391,0.797 22.391,0.797C22.391,0.797 35.358,0.797 39.116,1.844C41.195,2.429 42.827,4.131 43.379,6.291L43.379,6.291ZM17.993,26.089L31.188,18.391L17.993,10.694L17.993,26.089Z" fill="#FFFFFF"/>
</svg>
