<svg width="32" height="28" viewBox="0 0 32 28" fill="none" xmlns="http://www.w3.org/2000/svg" xmlns:xlink="http://www.w3.org/1999/xlink">
<path d="M2.5,0.5L29.5,0.5C29.898,0.5 30.279,0.658 30.561,0.939C30.842,1.221 31,1.602 31,2L31,26C31,26.398 30.842,26.779 30.561,27.061C30.279,27.342 29.898,27.5 29.5,27.5L2.5,27.5C2.102,27.5 1.721,27.342 1.439,27.061C1.158,26.779 1,26.398 1,26L1,2C1,1.602 1.158,1.221 1.439,0.939C1.721,0.658 2.102,0.5 2.5,0.5L2.5,0.5ZM16.09,13.524L6.472,5.357L4.53,7.643L16.11,17.476L27.481,7.635L25.519,5.366L16.091,13.524L16.09,13.524Z" fill="#FFFFFF"/>
</svg>
