<svg width="70" height="56" viewBox="0 0 70 56" fill="none" xmlns="http://www.w3.org/2000/svg" xmlns:xlink="http://www.w3.org/1999/xlink">
<path d="M62.465,13.887C65.228,11.83 67.631,9.331 69.579,6.49C67.019,7.616 64.316,8.384 61.546,8.77C64.584,6.889 66.62,4.292 67.701,0.975C64.91,2.585 61.87,3.718 58.706,4.329C57.37,2.979 55.798,1.883 54.068,1.096C52.272,0.285 50.322,-0.125 48.351,-0.106C45.834,-0.106 43.517,0.533 41.396,1.772C39.238,3.014 37.558,4.771 36.319,6.971C35.086,9.124 34.438,11.563 34.441,14.045C34.441,15.125 34.52,16.206 34.721,17.284C29.089,17.029 23.579,15.558 18.57,12.97C13.6,10.425 9.236,6.838 5.777,2.454C4.463,4.579 3.77,7.029 3.778,9.528C3.778,12.008 4.377,14.246 5.537,16.325C6.658,18.347 8.214,20.095 10.094,21.442C7.856,21.362 5.777,20.723 3.78,19.563L3.78,19.843C3.78,23.161 4.858,26.12 6.976,28.719C9.135,31.316 11.813,32.996 15.012,33.714C13.771,33.994 12.492,34.113 11.253,34.113C10.453,34.113 9.615,34.074 8.696,33.994C9.573,36.794 11.214,39.071 13.572,40.95C15.931,42.788 18.689,43.71 21.806,43.71C16.61,47.746 10.775,49.786 4.258,49.786C3.017,49.786 1.899,49.746 0.898,49.664C7.415,53.904 14.611,55.983 22.488,55.983C30.722,55.983 37.999,53.862 44.355,49.664C50.15,45.908 54.667,40.831 57.906,34.433C61.023,28.436 62.584,22.16 62.584,15.725C62.625,15.11 62.585,14.492 62.465,13.887L62.465,13.887Z" clip-rule="evenodd" fill-rule="evenodd" fill="#0B1622"/>
</svg>
