<svg width="38" height="36" viewBox="0 0 38 36" fill="none" xmlns="http://www.w3.org/2000/svg" xmlns:xlink="http://www.w3.org/1999/xlink">
<path d="M36,26.84L36,33.912C36,34.418 35.808,34.906 35.463,35.276C35.118,35.647 34.645,35.873 34.14,35.908C33.266,35.968 32.552,36 32,36C14.326,36 0,21.674 0,4C0,3.448 0.03,2.734 0.092,1.86C0.127,1.355 0.353,0.882 0.724,0.537C1.094,0.192 1.582,0 2.088,0L9.16,0C9.408,0 9.647,0.092 9.831,0.258C10.016,0.424 10.131,0.653 10.156,0.9C10.202,1.36 10.244,1.726 10.284,2.004C10.681,4.778 11.496,7.476 12.7,10.006C12.89,10.406 12.766,10.884 12.406,11.14L8.09,14.224C10.729,20.373 15.629,25.273 21.778,27.912L24.858,23.604C24.984,23.428 25.168,23.302 25.377,23.247C25.586,23.193 25.808,23.214 26.004,23.306C28.534,24.508 31.231,25.32 34.004,25.716C34.282,25.756 34.648,25.8 35.104,25.844C35.35,25.869 35.579,25.985 35.745,26.169C35.911,26.353 36.002,26.592 36.002,26.84L36,26.84Z" fill="#09121F"/>
</svg>
