<svg width="40" height="44" viewBox="0 0 40 44" fill="none" xmlns="http://www.w3.org/2000/svg" xmlns:xlink="http://www.w3.org/1999/xlink">
<path d="M0,24L12,24L12,20L0,20L0,1.692C0,1.518 0.045,1.347 0.131,1.197C0.218,1.046 0.342,0.92 0.491,0.831C0.641,0.743 0.811,0.695 0.985,0.692C1.158,0.69 1.33,0.732 1.482,0.816L38.406,21.124C38.563,21.21 38.694,21.337 38.785,21.491C38.876,21.645 38.924,21.821 38.924,22C38.924,22.179 38.876,22.355 38.785,22.509C38.694,22.663 38.563,22.79 38.406,22.876L1.482,43.184C1.33,43.268 1.158,43.31 0.985,43.308C0.811,43.305 0.641,43.257 0.491,43.169C0.342,43.08 0.218,42.954 0.131,42.803C0.045,42.653 0,42.482 0,42.308L0,24Z" fill="#09121F"/>
</svg>
