<svg width="1960" height="1954" viewBox="0 0 1960 1954" fill="none" xmlns="http://www.w3.org/2000/svg" xmlns:xlink="http://www.w3.org/1999/xlink">
<path d="M181.832,1952.153C157.441,1952.153 133.175,1949.781 109.16,1945.089C68.744,1937.149 17.158,1916.063 0.799,1860.845L16.531,1853.783C30.128,1899.565 75.857,1917.661 111.838,1924.723C198.233,1941.737 288.477,1926.735 372.865,1881.365C457.251,1835.945 527.539,1764.591 576.113,1674.935C582.013,1664.109 587.953,1652.095 593.643,1639.257C592.555,1638.743 591.467,1638.175 590.379,1637.609C542.769,1613.273 486.831,1557.695 485.827,1481.289C485.325,1441.489 507.749,1400.811 540.425,1382.353C566.323,1367.711 592.931,1371.115 611.633,1391.479C624.353,1405.347 633.263,1426.125 638.243,1453.141C649.665,1515.575 636.653,1576.875 617.197,1627.607C727.023,1669.727 886.425,1627.451 997.421,1459.895C1029.971,1410.761 1055.661,1356.215 1076.119,1299.503C1001.229,1235.367 930.941,1136.327 870.067,1007.283C821.953,910.203 777.061,804.513 774.843,690.625C773.713,631.851 786.767,572.253 811.703,522.861C838.437,469.811 877.095,433.567 920.523,420.833C1018.967,391.857 1115.697,485.123 1152.389,591.999C1189.625,700.473 1182.345,823.537 1168.957,940.311C1156.657,1047.549 1137.537,1173.603 1097.037,1292.027C1144.859,1330.437 1194.395,1353.999 1244.265,1361.371C1352.625,1377.457 1459.565,1318.991 1562.151,1187.677C1657.457,1064.047 1722.683,903.295 1745.695,735.067C1746.071,732.333 1746.447,729.549 1746.823,726.663C1737.325,729.911 1727.577,732.385 1717.621,734.035C1656.285,743.109 1596.959,710.887 1569.807,653.969C1554.243,621.333 1551.315,579.109 1561.983,541.061C1571.355,507.703 1589.637,482.957 1613.527,471.357C1667.331,445.321 1725.987,491.207 1749.501,548.589C1769.039,596.227 1770.295,650.669 1766.781,696.503C1808.953,674.745 1844.767,634.893 1873.677,577.511C1906.309,512.757 1928.485,427.123 1936.057,336.487C1951.537,193.676 1938.525,87.522 1896.227,11.683L1910.033,0.031C1954.759,80.304 1968.691,191.15 1952.667,338.961C1944.843,432.329 1921.831,521.057 1887.859,588.441C1855.603,652.473 1813.513,697.017 1764.521,719.599C1763.767,726.199 1762.973,732.541 1762.137,738.573C1738.581,910.769 1671.809,1075.389 1574.201,1201.959C1467.765,1338.221 1356.099,1398.749 1242.215,1381.839C1190.629,1374.209 1139.503,1350.183 1090.219,1311.103C1069.383,1368.177 1043.319,1423.135 1010.349,1472.887C920.941,1607.861 757.187,1706.951 609.499,1646.321C603.223,1660.809 596.571,1674.213 590.003,1686.277C539.631,1779.233 466.875,1853.163 379.559,1900.183C315.629,1934.571 248.439,1952.101 181.874,1952.101L181.832,1952.153ZM572.097,1393.851C564.231,1393.851 555.863,1396.223 547.371,1401.017C524.737,1413.855 502.061,1445.407 502.521,1480.929C503.357,1547.385 553.813,1596.569 596.739,1618.533C598.203,1619.305 599.709,1620.027 601.215,1620.749C619.791,1573.009 632.385,1515.471 621.801,1457.625C617.659,1434.889 610.463,1417.773 600.421,1406.843C592.513,1398.181 582.723,1393.799 572.055,1393.799L572.097,1393.851ZM955.249,436.557C944.539,436.557 934.163,438.001 924.331,440.887C857.975,460.427 788.859,554.413 791.495,690.109C793.629,799.151 837.391,901.901 884.375,996.713C943.367,1121.685 1011.019,1217.735 1082.771,1280.169C1121.681,1164.891 1140.257,1042.083 1152.263,937.373C1165.317,823.537 1172.471,703.823 1136.867,599.937C1099.631,491.463 1021.311,436.453 955.249,436.453L955.249,436.557ZM1645.031,484.813C1636.455,484.813 1627.837,486.669 1619.511,490.691C1600.265,500.023 1585.413,520.335 1577.673,547.919C1568.719,579.831 1571.187,616.539 1584.115,643.605C1607.921,693.563 1660.679,721.713 1715.361,713.671C1726.993,711.713 1738.289,708.669 1749.167,704.443C1753.393,659.589 1753.559,604.577 1734.481,557.971C1718.039,517.861 1681.473,484.761 1645.031,484.761L1645.031,484.813Z" transform="rotate(180 979.939 976.092)" fill="#1E5AF9" fill-opacity="0.04"/>
</svg>
