<svg width="40" height="40" viewBox="0 0 40 40" fill="none" xmlns="http://www.w3.org/2000/svg" xmlns:xlink="http://www.w3.org/1999/xlink">
<path d="M20,0C31.04,0 40,8.96 40,20C40,31.04 31.04,40 20,40C8.96,40 0,31.04 0,20C0,8.96 8.96,0 20,0ZM20,4C11.16,4 4,11.16 4,20C4,28.84 11.16,36 20,36C28.84,36 36,28.84 36,20C36,11.16 28.84,4 20,4ZM20,10C23.64,10 26.826,11.946 28.576,14.856L25.148,16.914C24.609,16.014 23.843,15.272 22.927,14.761C22.011,14.25 20.977,13.987 19.928,14C18.879,14.013 17.852,14.301 16.949,14.835C16.046,15.369 15.299,16.13 14.782,17.042C14.265,17.955 13.996,18.987 14.003,20.036C14.009,21.085 14.29,22.114 14.818,23.02C15.346,23.926 16.102,24.678 17.011,25.201C17.921,25.724 18.951,26 20,26C21.036,26.001 22.055,25.733 22.957,25.222C23.859,24.712 24.613,23.977 25.146,23.088L28.576,25.144C27.452,27.021 25.743,28.478 23.712,29.291C21.68,30.103 19.438,30.227 17.33,29.643C15.221,29.06 13.362,27.8 12.038,26.058C10.714,24.316 9.998,22.188 10,20C10,14.48 14.48,10 20,10Z" fill="#09121F"/>
</svg>
