<svg width="140" height="140" viewBox="0 0 140 140" fill="none" xmlns="http://www.w3.org/2000/svg" xmlns:xlink="http://www.w3.org/1999/xlink">
<circle cx="70" cy="70" r="70" fill="#FFFFFF" fill-opacity="0.6"/>
<circle cx="70" cy="70" r="60" fill="#FFFFFF" fill-opacity="0.7"/>
<circle cx="70" cy="70" r="50" fill="#FFFFFF"/>
<path d="M52,53.986C52,52.89 52.89,52 53.986,52L86.014,52C87.11,52 88,52.89 88,53.986L88,86.014C87.999,86.541 87.79,87.045 87.418,87.418C87.045,87.79 86.541,87.999 86.014,88L53.986,88C53.459,87.999 52.955,87.79 52.582,87.418C52.21,87.045 52.001,86.541 52,86.014L52,53.986ZM67.244,62.83C67.124,62.75 66.984,62.704 66.839,62.696C66.695,62.689 66.551,62.722 66.423,62.79C66.296,62.858 66.189,62.959 66.114,63.083C66.04,63.207 66,63.349 66,63.494L66,76.506C66,76.651 66.04,76.793 66.114,76.917C66.189,77.041 66.296,77.142 66.423,77.21C66.551,77.278 66.695,77.311 66.839,77.304C66.984,77.296 67.124,77.25 67.244,77.17L77.002,70.666C77.112,70.593 77.202,70.494 77.264,70.378C77.326,70.262 77.359,70.132 77.359,70C77.359,69.868 77.326,69.738 77.264,69.622C77.202,69.506 77.112,69.407 77.002,69.334L67.242,62.83L67.244,62.83Z" fill="#5956E9"/>
</svg>
