<svg width="500" height="912" viewBox="0 0 500 912" fill="none" xmlns="http://www.w3.org/2000/svg" xmlns:xlink="http://www.w3.org/1999/xlink">
<path d="M239.422,-0.131L268.06,-0.131C268.06,-0.131 324.162,302.329 369.204,427.951C418.872,566.473 517.824,674.791 494.678,808.189C475.18,920.575 423.228,911.701 261.228,911.207C100.423,910.717 26.404,919.433 4.668,808.189C-22.287,670.239 69.521,563.485 118.257,427.951C165.804,295.725 239.422,-0.131 239.422,-0.131Z" fill="url(#pf_0_713_793)"/>
<path d="M151.275,441.011L147.313,426.482L222.597,401.387L303.165,398.746L348.073,427.803L341.468,441.011C341.468,441.011 284.922,424.022 247.692,423.841C209.447,423.655 151.275,441.011 151.275,441.011Z" fill="#9994F2" stroke="#9994F2" stroke-width="1.321" stroke-miterlimit="3.999327"/>
<path d="M148.633,417.237L247.692,330.065L346.751,417.237C346.751,417.237 349.253,424.521 346.751,427.803C344.173,431.187 336.185,430.445 336.185,430.445C336.185,430.445 282.996,412.257 247.692,411.954C210.873,411.637 155.237,430.445 155.237,430.445C155.237,430.445 150.479,429.879 148.633,427.803C145.892,424.719 148.633,417.237 148.633,417.237Z" fill="#E7DBFB" stroke="#E7DBFB" stroke-width="1.321" stroke-miterlimit="3.999327"/>
<path d="M206.748,221.76L198.823,216.477L250.334,186.099L300.524,216.477L291.278,221.76C291.278,221.76 268.817,198.48 250.334,197.986C230.952,197.468 206.748,221.76 206.748,221.76Z" fill="#F3F1F5" stroke="#F3F1F5" stroke-width="1.321" stroke-miterlimit="3.999327"/>
<path d="M216.371,149.494L210.71,145.721L247.504,124.022L283.353,145.721L276.749,149.494C276.749,149.494 260.706,132.866 247.504,132.513C233.659,132.143 216.371,149.494 216.371,149.494Z" fill="#F3F1F5" fill-opacity="0.8" stroke="#F3F1F5" stroke-opacity="0.8" stroke-width="1.321" stroke-miterlimit="3.999327"/>
<path d="M229.956,94.399L226.56,92.135L248.636,79.116L270.146,92.135L266.183,94.399C266.183,94.399 256.557,84.422 248.636,84.21C240.329,83.988 229.956,94.399 229.956,94.399Z" fill="#F3F1F5" fill-opacity="0.7" stroke="#F3F1F5" stroke-opacity="0.7" stroke-width="1.321" stroke-miterlimit="3.999327"/>
<defs>
<linearGradient id="pf_0_713_793" x1="248.971" y1="-0.131" x2="248.971" y2="911.558" gradientUnits="userSpaceOnUse">
<stop stop-color="#7D48EA" stop-opacity="0"/>
<stop offset="0.719" stop-color="#1E5AF9"/>
</linearGradient>
</defs>
</svg>
